<svg xmlns="http://www.w3.org/2000/svg" xmlns:xlink="http://www.w3.org/1999/xlink" contentStyleType="text/css" data-diagram-type="CLASS" height="986px" preserveAspectRatio="none" style="width:1143px;height:986px;background:#FFFFFF;" version="1.1" viewBox="0 0 1143 986" width="1143px" zoomAndPan="magnify"><defs/><g><!--cluster Model--><g class="cluster" data-entity="Model" data-source-line="3" data-uid="ent0002" id="cluster_Model"><rect fill="none" height="535.64" rx="2.5" ry="2.5" style="stroke:#000000;stroke-width:1.5;" width="534" x="7" y="445.27"/><text fill="#000000" font-family="sans-serif" font-size="14" font-weight="bold" lengthAdjust="spacing" textLength="47.8652" x="250.0674" y="460.2651">Model</text></g><!--cluster View--><g class="cluster" data-entity="View" data-source-line="30" data-uid="ent0005" id="cluster_View"><rect fill="none" height="229.37" rx="2.5" ry="2.5" style="stroke:#000000;stroke-width:1.5;" width="572" x="565" y="445.27"/><text fill="#000000" font-family="sans-serif" font-size="14" font-weight="bold" lengthAdjust="spacing" textLength="38.0625" x="831.9688" y="460.2651">View</text></g><!--cluster Controller--><g class="cluster" data-entity="Controller" data-source-line="43" data-uid="ent0007" id="cluster_Controller"><rect fill="none" height="261.97" rx="2.5" ry="2.5" style="stroke:#000000;stroke-width:1.5;" width="448" x="437" y="134.3"/><text fill="#000000" font-family="sans-serif" font-size="14" font-weight="bold" lengthAdjust="spacing" textLength="79.0713" x="621.4644" y="149.2951">Controller</text></g><!--class TaxBracket--><g class="entity" data-entity="TaxBracket" data-source-line="4" data-uid="ent0003" id="entity_TaxBracket"><rect fill="#F1F1F1" height="227.2656" rx="2.5" ry="2.5" style="stroke:#181818;stroke-width:0.5;" width="501.9658" x="23.02" y="737.64"/><ellipse cx="230.1216" cy="753.64" fill="#ADD1B2" rx="11" ry="11" style="stroke:#181818;stroke-width:1;"/><path d="M233.0903,759.2806 Q232.5122,759.5775 231.8716,759.7181 Q231.2309,759.8744 230.5278,759.8744 Q228.0278,759.8744 226.6997,758.2338 Q225.3872,756.5775 225.3872,753.4525 Q225.3872,750.3275 226.6997,748.6713 Q228.0278,747.015 230.5278,747.015 Q231.2309,747.015 231.8716,747.1713 Q232.5278,747.3275 233.0903,747.6244 L233.0903,750.3431 Q232.4653,749.765 231.8716,749.4994 Q231.2778,749.2181 230.6528,749.2181 Q229.3091,749.2181 228.6216,750.2963 Q227.9341,751.3588 227.9341,753.4525 Q227.9341,755.5463 228.6216,756.6244 Q229.3091,757.6869 230.6528,757.6869 Q231.2778,757.6869 231.8716,757.4213 Q232.4653,757.14 233.0903,756.5619 L233.0903,759.2806 Z " fill="#000000"/><text fill="#000000" font-family="sans-serif" font-size="14" lengthAdjust="spacing" textLength="79.2627" x="250.6216" y="758.4867">TaxBracket</text><line style="stroke:#181818;stroke-width:0.5;" x1="24.02" x2="523.9858" y1="769.64" y2="769.64"/><rect fill="none" height="6" style="stroke:#C82930;stroke-width:1;" width="6" x="31.02" y="780.2884"/><text fill="#000000" font-family="sans-serif" font-size="14" lengthAdjust="spacing" textLength="139.959" x="43.02" y="786.6351">lowerBound: double</text><rect fill="none" height="6" style="stroke:#C82930;stroke-width:1;" width="6" x="31.02" y="796.5853"/><text fill="#000000" font-family="sans-serif" font-size="14" lengthAdjust="spacing" textLength="142.7002" x="43.02" y="802.932">upperBound: double</text><rect fill="none" height="6" style="stroke:#C82930;stroke-width:1;" width="6" x="31.02" y="812.8822"/><text fill="#000000" font-family="sans-serif" font-size="14" lengthAdjust="spacing" textLength="85.3193" x="43.02" y="819.2289">rate: double</text><line style="stroke:#181818;stroke-width:0.5;" x1="24.02" x2="523.9858" y1="826.5306" y2="826.5306"/><ellipse cx="34.02" cy="840.1791" fill="#84BE84" rx="3" ry="3" style="stroke:#038048;stroke-width:1;"/><text fill="#000000" font-family="sans-serif" font-size="14" lengthAdjust="spacing" textLength="475.9658" x="43.02" y="843.5257">TaxBracket(lowerBound: double, upperBound: double, rate: double)</text><ellipse cx="34.02" cy="856.4759" fill="#84BE84" rx="3" ry="3" style="stroke:#038048;stroke-width:1;"/><text fill="#000000" font-family="sans-serif" font-size="14" lengthAdjust="spacing" textLength="177.7822" x="43.02" y="859.8226">getLowerBound(): double</text><ellipse cx="34.02" cy="872.7728" fill="#84BE84" rx="3" ry="3" style="stroke:#038048;stroke-width:1;"/><text fill="#000000" font-family="sans-serif" font-size="14" lengthAdjust="spacing" textLength="298.0605" x="43.02" y="876.1195">setLowerBound(lowerBound: double): void</text><ellipse cx="34.02" cy="889.0697" fill="#84BE84" rx="3" ry="3" style="stroke:#038048;stroke-width:1;"/><text fill="#000000" font-family="sans-serif" font-size="14" lengthAdjust="spacing" textLength="177.9873" x="43.02" y="892.4164">getUpperBound(): double</text><ellipse cx="34.02" cy="905.3666" fill="#84BE84" rx="3" ry="3" style="stroke:#038048;stroke-width:1;"/><text fill="#000000" font-family="sans-serif" font-size="14" lengthAdjust="spacing" textLength="301.0068" x="43.02" y="908.7132">setUpperBound(upperBound: double): void</text><ellipse cx="34.02" cy="921.6634" fill="#84BE84" rx="3" ry="3" style="stroke:#038048;stroke-width:1;"/><text fill="#000000" font-family="sans-serif" font-size="14" lengthAdjust="spacing" textLength="123.2041" x="43.02" y="925.0101">getRate(): double</text><ellipse cx="34.02" cy="937.9603" fill="#84BE84" rx="3" ry="3" style="stroke:#038048;stroke-width:1;"/><text fill="#000000" font-family="sans-serif" font-size="14" lengthAdjust="spacing" textLength="188.8428" x="43.02" y="941.307">setRate(rate: double): void</text><ellipse cx="34.02" cy="954.2572" fill="#84BE84" rx="3" ry="3" style="stroke:#038048;stroke-width:1;"/><text fill="#000000" font-family="sans-serif" font-size="14" lengthAdjust="spacing" textLength="117.708" x="43.02" y="957.6039">toString(): String</text></g><!--class TaxCalculator--><g class="entity" data-entity="TaxCalculator" data-source-line="18" data-uid="ent0004" id="entity_TaxCalculator"><rect fill="#F1F1F1" height="178.375" rx="2.5" ry="2.5" style="stroke:#181818;stroke-width:0.5;" width="297.4756" x="201.26" y="480.27"/><ellipse cx="297.4929" cy="496.27" fill="#ADD1B2" rx="11" ry="11" style="stroke:#181818;stroke-width:1;"/><path d="M300.4617,501.9106 Q299.8835,502.2075 299.2429,502.3481 Q298.6023,502.5044 297.8992,502.5044 Q295.3992,502.5044 294.071,500.8638 Q292.7585,499.2075 292.7585,496.0825 Q292.7585,492.9575 294.071,491.3013 Q295.3992,489.645 297.8992,489.645 Q298.6023,489.645 299.2429,489.8013 Q299.8992,489.9575 300.4617,490.2544 L300.4617,492.9731 Q299.8367,492.395 299.2429,492.1294 Q298.6492,491.8481 298.0242,491.8481 Q296.6804,491.8481 295.9929,492.9263 Q295.3054,493.9888 295.3054,496.0825 Q295.3054,498.1763 295.9929,499.2544 Q296.6804,500.3169 298.0242,500.3169 Q298.6492,500.3169 299.2429,500.0513 Q299.8367,499.77 300.4617,499.1919 L300.4617,501.9106 Z " fill="#000000"/><text fill="#000000" font-family="sans-serif" font-size="14" lengthAdjust="spacing" textLength="96.5098" x="317.9929" y="501.1167">TaxCalculator</text><line style="stroke:#181818;stroke-width:0.5;" x1="202.26" x2="497.7356" y1="512.27" y2="512.27"/><rect fill="none" height="6" style="stroke:#C82930;stroke-width:1;" width="6" x="209.26" y="522.9184"/><text fill="#000000" font-family="sans-serif" font-size="14" lengthAdjust="spacing" textLength="123.1221" x="221.26" y="529.2651">threshold: double</text><rect fill="none" height="6" style="stroke:#C82930;stroke-width:1;" width="6" x="209.26" y="539.2153"/><text fill="#000000" font-family="sans-serif" font-size="14" lengthAdjust="spacing" textLength="196.7861" x="221.26" y="545.562">brackets: List&lt;TaxBracket&gt;</text><line style="stroke:#181818;stroke-width:0.5;" x1="202.26" x2="497.7356" y1="552.8638" y2="552.8638"/><ellipse cx="212.26" cy="566.5122" fill="#84BE84" rx="3" ry="3" style="stroke:#038048;stroke-width:1;"/><text fill="#000000" font-family="sans-serif" font-size="14" lengthAdjust="spacing" textLength="230.5557" x="221.26" y="569.8589">TaxCalculator(threshold: double)</text><ellipse cx="212.26" cy="582.8091" fill="#84BE84" rx="3" ry="3" style="stroke:#038048;stroke-width:1;"/><text fill="#000000" font-family="sans-serif" font-size="14" lengthAdjust="spacing" textLength="271.4756" x="221.26" y="586.1557">addBracket(bracket: TaxBracket): void</text><ellipse cx="212.26" cy="599.1059" fill="#84BE84" rx="3" ry="3" style="stroke:#038048;stroke-width:1;"/><text fill="#000000" font-family="sans-serif" font-size="14" lengthAdjust="spacing" textLength="255.7939" x="221.26" y="602.4526">calculateTax(salary: double): double</text><ellipse cx="212.26" cy="615.4028" fill="#84BE84" rx="3" ry="3" style="stroke:#038048;stroke-width:1;"/><text fill="#000000" font-family="sans-serif" font-size="14" lengthAdjust="spacing" textLength="231.417" x="221.26" y="618.7495">getBrackets(): List&lt;TaxBracket&gt;</text><ellipse cx="212.26" cy="631.6997" fill="#84BE84" rx="3" ry="3" style="stroke:#038048;stroke-width:1;"/><text fill="#000000" font-family="sans-serif" font-size="14" lengthAdjust="spacing" textLength="263.5391" x="221.26" y="635.0464">setThreshold(threshold: double): void</text><ellipse cx="212.26" cy="647.9966" fill="#84BE84" rx="3" ry="3" style="stroke:#038048;stroke-width:1;"/><text fill="#000000" font-family="sans-serif" font-size="14" lengthAdjust="spacing" textLength="160.0977" x="221.26" y="651.3432">getThreshold(): double</text></g><!--class TaxView--><g class="entity" data-entity="TaxView" data-source-line="31" data-uid="ent0006" id="entity_TaxView"><rect fill="#F1F1F1" height="178.375" rx="2.5" ry="2.5" style="stroke:#181818;stroke-width:0.5;" width="540.7939" x="580.6" y="480.27"/><ellipse cx="817.2738" cy="496.27" fill="#ADD1B2" rx="11" ry="11" style="stroke:#181818;stroke-width:1;"/><path d="M820.2426,501.9106 Q819.6645,502.2075 819.0238,502.3481 Q818.3832,502.5044 817.6801,502.5044 Q815.1801,502.5044 813.852,500.8638 Q812.5395,499.2075 812.5395,496.0825 Q812.5395,492.9575 813.852,491.3013 Q815.1801,489.645 817.6801,489.645 Q818.3832,489.645 819.0238,489.8013 Q819.6801,489.9575 820.2426,490.2544 L820.2426,492.9731 Q819.6176,492.395 819.0238,492.1294 Q818.4301,491.8481 817.8051,491.8481 Q816.4613,491.8481 815.7738,492.9263 Q815.0863,493.9888 815.0863,496.0825 Q815.0863,498.1763 815.7738,499.2544 Q816.4613,500.3169 817.8051,500.3169 Q818.4301,500.3169 819.0238,500.0513 Q819.6176,499.77 820.2426,499.1919 L820.2426,501.9106 Z " fill="#000000"/><text fill="#000000" font-family="sans-serif" font-size="14" lengthAdjust="spacing" textLength="58.9463" x="837.7738" y="501.1167">TaxView</text><line style="stroke:#181818;stroke-width:0.5;" x1="581.6" x2="1120.3939" y1="512.27" y2="512.27"/><rect fill="none" height="6" style="stroke:#C82930;stroke-width:1;" width="6" x="588.6" y="522.9184"/><text fill="#000000" font-family="sans-serif" font-size="14" lengthAdjust="spacing" textLength="122.1309" x="600.6" y="529.2651">scanner: Scanner</text><line style="stroke:#181818;stroke-width:0.5;" x1="581.6" x2="1120.3939" y1="536.5669" y2="536.5669"/><ellipse cx="591.6" cy="550.2153" fill="#84BE84" rx="3" ry="3" style="stroke:#038048;stroke-width:1;"/><text fill="#000000" font-family="sans-serif" font-size="14" lengthAdjust="spacing" textLength="69.8701" x="600.6" y="553.562">TaxView()</text><ellipse cx="591.6" cy="566.5122" fill="#84BE84" rx="3" ry="3" style="stroke:#038048;stroke-width:1;"/><text fill="#000000" font-family="sans-serif" font-size="14" lengthAdjust="spacing" textLength="137.8672" x="600.6" y="569.8589">displayMenu(): void</text><ellipse cx="591.6" cy="582.8091" fill="#84BE84" rx="3" ry="3" style="stroke:#038048;stroke-width:1;"/><text fill="#000000" font-family="sans-serif" font-size="14" lengthAdjust="spacing" textLength="121.1123" x="600.6" y="586.1557">getInput(): String</text><ellipse cx="591.6" cy="599.1059" fill="#84BE84" rx="3" ry="3" style="stroke:#038048;stroke-width:1;"/><text fill="#000000" font-family="sans-serif" font-size="14" lengthAdjust="spacing" textLength="274.6543" x="600.6" y="602.4526">displayMessage(message: String): void</text><ellipse cx="591.6" cy="615.4028" fill="#84BE84" rx="3" ry="3" style="stroke:#038048;stroke-width:1;"/><text fill="#000000" font-family="sans-serif" font-size="14" lengthAdjust="spacing" textLength="514.7939" x="600.6" y="618.7495">displayTaxBrackets(threshold: double, brackets: List&lt;TaxBracket&gt;): void</text><ellipse cx="591.6" cy="631.6997" fill="#84BE84" rx="3" ry="3" style="stroke:#038048;stroke-width:1;"/><text fill="#000000" font-family="sans-serif" font-size="14" lengthAdjust="spacing" textLength="390.3457" x="600.6" y="635.0464">displayTaxCalculation(tax: double, salary: double): void</text><ellipse cx="591.6" cy="647.9966" fill="#84BE84" rx="3" ry="3" style="stroke:#038048;stroke-width:1;"/><text fill="#000000" font-family="sans-serif" font-size="14" lengthAdjust="spacing" textLength="85.7773" x="600.6" y="651.3432">close(): void</text></g><!--class TaxController--><g class="entity" data-entity="TaxController" data-source-line="44" data-uid="ent0008" id="entity_TaxController"><rect fill="#F1F1F1" height="210.9688" rx="2.5" ry="2.5" style="stroke:#181818;stroke-width:0.5;" width="415.457" x="453.27" y="169.3"/><ellipse cx="609.4541" cy="185.3" fill="#ADD1B2" rx="11" ry="11" style="stroke:#181818;stroke-width:1;"/><path d="M612.4228,190.9406 Q611.8447,191.2375 611.2041,191.3781 Q610.5635,191.5344 609.8603,191.5344 Q607.3603,191.5344 606.0322,189.8937 Q604.7197,188.2375 604.7197,185.1125 Q604.7197,181.9875 606.0322,180.3312 Q607.3603,178.675 609.8603,178.675 Q610.5635,178.675 611.2041,178.8312 Q611.8603,178.9875 612.4228,179.2844 L612.4228,182.0031 Q611.7978,181.425 611.2041,181.1594 Q610.6103,180.8781 609.9853,180.8781 Q608.6416,180.8781 607.9541,181.9562 Q607.2666,183.0187 607.2666,185.1125 Q607.2666,187.2062 607.9541,188.2844 Q608.6416,189.3469 609.9853,189.3469 Q610.6103,189.3469 611.2041,189.0812 Q611.7978,188.8 612.4228,188.2219 L612.4228,190.9406 Z " fill="#000000"/><text fill="#000000" font-family="sans-serif" font-size="14" lengthAdjust="spacing" textLength="94.5889" x="629.9541" y="190.1467">TaxController</text><line style="stroke:#181818;stroke-width:0.5;" x1="454.27" x2="867.727" y1="201.3" y2="201.3"/><rect fill="none" height="6" style="stroke:#C82930;stroke-width:1;" width="6" x="461.27" y="211.9484"/><text fill="#000000" font-family="sans-serif" font-size="14" lengthAdjust="spacing" textLength="174.6924" x="473.27" y="218.2951">calculator: TaxCalculator</text><rect fill="none" height="6" style="stroke:#C82930;stroke-width:1;" width="6" x="461.27" y="228.2453"/><text fill="#000000" font-family="sans-serif" font-size="14" lengthAdjust="spacing" textLength="100.3516" x="473.27" y="234.592">view: TaxView</text><line style="stroke:#181818;stroke-width:0.5;" x1="454.27" x2="867.727" y1="241.8937" y2="241.8937"/><ellipse cx="464.27" cy="255.5422" fill="#84BE84" rx="3" ry="3" style="stroke:#038048;stroke-width:1;"/><text fill="#000000" font-family="sans-serif" font-size="14" lengthAdjust="spacing" textLength="105.5127" x="473.27" y="258.8889">TaxController()</text><ellipse cx="464.27" cy="271.8391" fill="#84BE84" rx="3" ry="3" style="stroke:#038048;stroke-width:1;"/><text fill="#000000" font-family="sans-serif" font-size="14" lengthAdjust="spacing" textLength="389.457" x="473.27" y="275.1857">TaxController(calculator: TaxCalculator, view: TaxView)</text><ellipse cx="464.27" cy="288.1359" fill="#84BE84" rx="3" ry="3" style="stroke:#038048;stroke-width:1;"/><text fill="#000000" font-family="sans-serif" font-size="14" lengthAdjust="spacing" textLength="73.2197" x="473.27" y="291.4826">run(): void</text><ellipse cx="464.27" cy="304.4328" fill="#84BE84" rx="3" ry="3" style="stroke:#038048;stroke-width:1;"/><text fill="#000000" font-family="sans-serif" font-size="14" lengthAdjust="spacing" textLength="204.791" x="473.27" y="307.7795">calculateTaxForSalary(): void</text><ellipse cx="464.27" cy="320.7297" fill="#84BE84" rx="3" ry="3" style="stroke:#038048;stroke-width:1;"/><text fill="#000000" font-family="sans-serif" font-size="14" lengthAdjust="spacing" textLength="170.9531" x="473.27" y="324.0764">setNewThreshold(): void</text><ellipse cx="464.27" cy="337.0266" fill="#84BE84" rx="3" ry="3" style="stroke:#038048;stroke-width:1;"/><text fill="#000000" font-family="sans-serif" font-size="14" lengthAdjust="spacing" textLength="177.1738" x="473.27" y="340.3732">modifyTaxBracket(): void</text><ellipse cx="464.27" cy="353.3234" fill="#84BE84" rx="3" ry="3" style="stroke:#038048;stroke-width:1;"/><text fill="#000000" font-family="sans-serif" font-size="14" lengthAdjust="spacing" textLength="210.6836" x="473.27" y="356.6701">getCalculator(): TaxCalculator</text><ellipse cx="464.27" cy="369.6203" fill="#84BE84" rx="3" ry="3" style="stroke:#038048;stroke-width:1;"/><text fill="#000000" font-family="sans-serif" font-size="14" lengthAdjust="spacing" textLength="135.5566" x="473.27" y="372.967">getView(): TaxView</text></g><!--class PersonalTaxApp--><g class="entity" data-entity="PersonalTaxApp" data-source-line="58" data-uid="ent0009" id="entity_PersonalTaxApp"><rect fill="#F1F1F1" height="64.2969" rx="2.5" ry="2.5" style="stroke:#181818;stroke-width:0.5;" width="203.085" x="559.46" y="7"/><ellipse cx="600.6975" cy="23" fill="#ADD1B2" rx="11" ry="11" style="stroke:#181818;stroke-width:1;"/><path d="M603.6663,28.6406 Q603.0882,28.9375 602.4475,29.0781 Q601.8069,29.2344 601.1038,29.2344 Q598.6038,29.2344 597.2757,27.5938 Q595.9632,25.9375 595.9632,22.8125 Q595.9632,19.6875 597.2757,18.0313 Q598.6038,16.375 601.1038,16.375 Q601.8069,16.375 602.4475,16.5313 Q603.1038,16.6875 603.6663,16.9844 L603.6663,19.7031 Q603.0413,19.125 602.4475,18.8594 Q601.8538,18.5781 601.2288,18.5781 Q599.885,18.5781 599.1975,19.6563 Q598.51,20.7188 598.51,22.8125 Q598.51,24.9063 599.1975,25.9844 Q599.885,27.0469 601.2288,27.0469 Q601.8538,27.0469 602.4475,26.7813 Q603.0413,26.5 603.6663,25.9219 L603.6663,28.6406 Z " fill="#000000"/><text fill="#000000" font-family="sans-serif" font-size="14" lengthAdjust="spacing" textLength="112.7793" x="620.5281" y="27.8467">PersonalTaxApp</text><line style="stroke:#181818;stroke-width:0.5;" x1="560.46" x2="761.545" y1="39" y2="39"/><line style="stroke:#181818;stroke-width:0.5;" x1="560.46" x2="761.545" y1="47" y2="47"/><ellipse cx="570.46" cy="60.6484" fill="#84BE84" rx="3" ry="3" style="stroke:#038048;stroke-width:1;"/><text fill="#000000" font-family="sans-serif" font-size="14" lengthAdjust="spacing" textLength="177.085" x="579.46" y="63.9951">main(args: String[]): void</text></g><!--link PersonalTaxApp to TaxController--><g class="link" data-entity-1="PersonalTaxApp" data-entity-2="TaxController" data-source-line="62" data-uid="lnk10" id="link_PersonalTaxApp_TaxController"><path codeLine="62" d="M661,71.66 C661,96.82 661,127.59 661,162.89 " fill="none" id="PersonalTaxApp-to-TaxController" style="stroke:#181818;stroke-width:1;"/><polygon fill="#181818" points="661,168.89,665,159.89,661,163.89,657,159.89,661,168.89" style="stroke:#181818;stroke-width:1;"/><text fill="#000000" font-family="sans-serif" font-size="13" lengthAdjust="spacing" textLength="101.0992" x="662" y="114.3669">&#21019;&#24314;&#24182;&#35843;&#29992; run()</text></g><!--link TaxController to TaxCalculator--><g class="link" data-entity-1="TaxController" data-entity-2="TaxCalculator" data-source-line="63" data-uid="lnk11" id="link_TaxController_TaxCalculator"><path codeLine="63" d="M549.6,380.62 C515.09,413.1 481.7896,444.4382 448.5696,475.6982 " fill="none" id="TaxController-to-TaxCalculator" style="stroke:#181818;stroke-width:1;"/><polygon fill="#181818" points="444.2,479.81,453.4956,476.5554,447.8413,476.3835,448.0132,470.7293,444.2,479.81" style="stroke:#181818;stroke-width:1;"/><text fill="#000000" font-family="sans-serif" font-size="13" lengthAdjust="spacing" textLength="104.0001" x="515" y="425.3369">&#20351;&#29992;&#27169;&#22411;&#36827;&#34892;&#35745;&#31639;</text></g><!--link TaxController to TaxView--><g class="link" data-entity-1="TaxController" data-entity-2="TaxView" data-source-line="64" data-uid="lnk12" id="link_TaxController_TaxView"><path codeLine="64" d="M729.06,380.62 C750.14,413.1 769.8822,443.5179 790.1822,474.7779 " fill="none" id="TaxController-to-TaxView" style="stroke:#181818;stroke-width:1;"/><polygon fill="#181818" points="793.45,479.81,791.903,470.0834,790.7269,475.6166,785.1936,474.4404,793.45,479.81" style="stroke:#181818;stroke-width:1;"/><text fill="#000000" font-family="sans-serif" font-size="13" lengthAdjust="spacing" textLength="117.0001" x="757" y="425.3369">&#35843;&#29992;&#35270;&#22270;&#26174;&#31034;&#21644;&#36755;&#20837;</text></g><!--reverse link TaxCalculator to TaxBracket--><g class="link" data-entity-1="TaxCalculator" data-entity-2="TaxBracket" data-source-line="65" data-uid="lnk13" id="link_TaxCalculator_TaxBracket"><path codeLine="65" d="M322.8052,670.5706 C316.0652,695.3906 311.79,711.13 304.72,737.17 " fill="none" id="TaxCalculator-backto-TaxBracket" style="stroke:#181818;stroke-width:1;"/><polygon fill="#181818" points="325.95,658.99,320.5174,663.732,322.8052,670.5706,328.2378,665.8286,325.95,658.99" style="stroke:#181818;stroke-width:1;"/><text fill="#000000" font-family="sans-serif" font-size="13" lengthAdjust="spacing" textLength="78.0001" x="317" y="703.7069">&#21253;&#21547;&#31246;&#29575;&#32423;&#21035;</text><text fill="#000000" font-family="sans-serif" font-size="13" lengthAdjust="spacing" textLength="8.271" x="315.7257" y="678.7945">1</text><text fill="#000000" font-family="sans-serif" font-size="13" lengthAdjust="spacing" textLength="6.5" x="300.5116" y="726.451">*</text></g><!--SRC=[VLNFQzim5Bxxhn0-ELrosDMCmbeO3DenbcwNiODgQwcf8Xb9RXf6JgDROQ6CRh11O13OQA1GTXeiO-a_CzV-CwRuHonPJdo9qVlUzvw-xps77mSaX0psGGYzOzX3NJ74233a2KXw65bMSGxiVUeZR8Ct5f2FXo7du02UxZ0PHw8uNZuTWEa0iHqQ4Ty5FeqE9KqLZC9mVP11WOpZUqeTn-HkDr2sDQQMGjL3Ocz5uRGQYd4DOTQJEISqy7NEvwiMrd4g2BFVHivdyWhhsBAOTaU3GT2kO07fBIdojomuidG3To7s8Wm5PPg7ueWXVaHnaqk7kHVS1Ni15mygTxPrpofgnw1JFO6-NzfRKBkAvURDl88NIP338OPigCXWo2MbBAZuKeiDFKjX3yf66rfkCgd2wwL7raZPdHS16XYhippKDESU90GnQLV-egkvX3kgR7x0Gmo7-uX4JcDlZqaOYPhzjLJEPNzEF_yjWIPPWQzKuwOyxGrpiOcnd9A04aV0quhESBO-1fXofDrS5tsN4i4eneWPqbSXpG1lDR2kFhyAvaJQu9P-rEPznQhvf4VMrcZhr2e3YuYpUGqUKTRDv6h0oQb-WWRQeDOGVUe7hnLtcyT9MUVMEdqoO3wfkaYPDRd-Jn7Zb40imm_3i310DW43ua3Mu-KOldnLjY5JQqcTpdRDHnV4vvFuppp-_Ilz-JRvFCjLitHKcLTzz5pmx- -jXD_Dfl6t3-dj99sEqvjfSlEbEJNRMXVaDTAhT_5aSVTraNoVnvVZTF4fFljXwGNi-pROwdI0lMMhVvYot_5P_F4wcLqa5- -J-LLyVlqV]--></g></svg>