<svg xmlns="http://www.w3.org/2000/svg" xmlns:xlink="http://www.w3.org/1999/xlink" contentStyleType="text/css" data-diagram-type="CLASS" height="1393px" preserveAspectRatio="none" style="width:1523px;height:1393px;background:#FFFFFF;" version="1.1" viewBox="0 0 1523 1393" width="1523px" zoomAndPan="magnify"><defs/><g><!--cluster Model--><g id="cluster_Model"><rect fill="transparent" height="615" rx="2.5" ry="2.5" style="stroke:#000000;stroke-width:1.5;" width="840" x="116" y="772"/><text fill="#000000" font-family="sans-serif" font-size="14" font-weight="bold" lengthAdjust="spacing" textLength="47.8652" x="512.0674" y="786.9951">Model</text></g><!--cluster Service--><g id="cluster_Service"><rect fill="transparent" height="213" rx="2.5" ry="2.5" style="stroke:#000000;stroke-width:1.5;" width="1058" x="7" y="477.5"/><text fill="#000000" font-family="sans-serif" font-size="14" font-weight="bold" lengthAdjust="spacing" textLength="58.2012" x="506.8994" y="492.4951">Service</text></g><!--cluster View--><g id="cluster_View"><rect fill="transparent" height="278" rx="2.5" ry="2.5" style="stroke:#000000;stroke-width:1.5;" width="428" x="1089" y="445"/><text fill="#000000" font-family="sans-serif" font-size="14" font-weight="bold" lengthAdjust="spacing" textLength="38.0625" x="1283.9688" y="459.9951">View</text></g><!--cluster Controller--><g id="cluster_Controller"><rect fill="transparent" height="262" rx="2.5" ry="2.5" style="stroke:#000000;stroke-width:1.5;" width="406" x="796" y="134"/><text fill="#000000" font-family="sans-serif" font-size="14" font-weight="bold" lengthAdjust="spacing" textLength="79.0713" x="959.4644" y="148.9951">Controller</text></g><!--class User--><g id="elem_User"><rect codeLine="4" fill="#F1F1F1" height="210.9688" id="User" rx="2.5" ry="2.5" style="stroke:#181818;stroke-width:0.5;" width="316.582" x="377.5" y="807"/><ellipse cx="515.5859" cy="823" fill="#ADD1B2" rx="11" ry="11" style="stroke:#181818;stroke-width:1;"/><path d="M518.5547,828.6406 Q517.9766,828.9375 517.3359,829.0781 Q516.6953,829.2344 515.9922,829.2344 Q513.4922,829.2344 512.1641,827.5938 Q510.8516,825.9375 510.8516,822.8125 Q510.8516,819.6875 512.1641,818.0313 Q513.4922,816.375 515.9922,816.375 Q516.6953,816.375 517.3359,816.5313 Q517.9922,816.6875 518.5547,816.9844 L518.5547,819.7031 Q517.9297,819.125 517.3359,818.8594 Q516.7422,818.5781 516.1172,818.5781 Q514.7734,818.5781 514.0859,819.6563 Q513.3984,820.7188 513.3984,822.8125 Q513.3984,824.9063 514.0859,825.9844 Q514.7734,827.0469 516.1172,827.0469 Q516.7422,827.0469 517.3359,826.7813 Q517.9297,826.5 518.5547,825.9219 L518.5547,828.6406 Z " fill="#000000"/><text fill="#000000" font-family="sans-serif" font-size="14" lengthAdjust="spacing" textLength="31.9102" x="536.0859" y="827.8467">User</text><line style="stroke:#181818;stroke-width:0.5;" x1="378.5" x2="693.082" y1="839" y2="839"/><rect fill="transparent" height="6" style="stroke:#C82930;stroke-width:1;" width="6" x="385.5" y="849.6484"/><text fill="#000000" font-family="sans-serif" font-size="14" lengthAdjust="spacing" textLength="121.1875" x="397.5" y="855.9951">username: String</text><rect fill="transparent" height="6" style="stroke:#C82930;stroke-width:1;" width="6" x="385.5" y="865.9453"/><text fill="#000000" font-family="sans-serif" font-size="14" lengthAdjust="spacing" textLength="117.6602" x="397.5" y="872.292">password: String</text><rect fill="transparent" height="6" style="stroke:#C82930;stroke-width:1;" width="6" x="385.5" y="882.2422"/><text fill="#000000" font-family="sans-serif" font-size="14" lengthAdjust="spacing" textLength="178.8418" x="397.5" y="888.5889">meetings: List&lt;Meeting&gt;</text><line style="stroke:#181818;stroke-width:0.5;" x1="378.5" x2="693.082" y1="895.8906" y2="895.8906"/><ellipse cx="388.5" cy="909.5391" fill="#84BE84" rx="3" ry="3" style="stroke:#038048;stroke-width:1;"/><text fill="#000000" font-family="sans-serif" font-size="14" lengthAdjust="spacing" textLength="290.582" x="397.5" y="912.8857">User(username: String, password: String)</text><ellipse cx="388.5" cy="925.8359" fill="#84BE84" rx="3" ry="3" style="stroke:#038048;stroke-width:1;"/><text fill="#000000" font-family="sans-serif" font-size="14" lengthAdjust="spacing" textLength="156.4746" x="397.5" y="929.1826">getUsername(): String</text><ellipse cx="388.5" cy="942.1328" fill="#84BE84" rx="3" ry="3" style="stroke:#038048;stroke-width:1;"/><text fill="#000000" font-family="sans-serif" font-size="14" lengthAdjust="spacing" textLength="151.1289" x="397.5" y="945.4795">getPassword(): String</text><ellipse cx="388.5" cy="958.4297" fill="#84BE84" rx="3" ry="3" style="stroke:#038048;stroke-width:1;"/><text fill="#000000" font-family="sans-serif" font-size="14" lengthAdjust="spacing" textLength="211.1963" x="397.5" y="961.7764">getMeetings(): List&lt;Meeting&gt;</text><ellipse cx="388.5" cy="974.7266" fill="#84BE84" rx="3" ry="3" style="stroke:#038048;stroke-width:1;"/><text fill="#000000" font-family="sans-serif" font-size="14" lengthAdjust="spacing" textLength="256.1289" x="397.5" y="978.0732">addMeeting(meeting: Meeting): void</text><ellipse cx="388.5" cy="991.0234" fill="#84BE84" rx="3" ry="3" style="stroke:#038048;stroke-width:1;"/><text fill="#000000" font-family="sans-serif" font-size="14" lengthAdjust="spacing" textLength="283.2471" x="397.5" y="994.3701">removeMeeting(meeting: Meeting): void</text><ellipse cx="388.5" cy="1007.3203" fill="#84BE84" rx="3" ry="3" style="stroke:#038048;stroke-width:1;"/><text fill="#000000" font-family="sans-serif" font-size="14" lengthAdjust="spacing" textLength="147.9912" x="397.5" y="1010.667">clearMeetings(): void</text></g><!--class Meeting--><g id="elem_Meeting"><rect codeLine="17" fill="#F1F1F1" height="276.1563" id="Meeting" rx="2.5" ry="2.5" style="stroke:#181818;stroke-width:0.5;" width="807.5391" x="132" y="1095"/><ellipse cx="503.2974" cy="1111" fill="#ADD1B2" rx="11" ry="11" style="stroke:#181818;stroke-width:1;"/><path d="M506.2661,1116.6406 Q505.688,1116.9375 505.0474,1117.0781 Q504.4067,1117.2344 503.7036,1117.2344 Q501.2036,1117.2344 499.8755,1115.5938 Q498.563,1113.9375 498.563,1110.8125 Q498.563,1107.6875 499.8755,1106.0313 Q501.2036,1104.375 503.7036,1104.375 Q504.4067,1104.375 505.0474,1104.5313 Q505.7036,1104.6875 506.2661,1104.9844 L506.2661,1107.7031 Q505.6411,1107.125 505.0474,1106.8594 Q504.4536,1106.5781 503.8286,1106.5781 Q502.4849,1106.5781 501.7974,1107.6563 Q501.1099,1108.7188 501.1099,1110.8125 Q501.1099,1112.9063 501.7974,1113.9844 Q502.4849,1115.0469 503.8286,1115.0469 Q504.4536,1115.0469 505.0474,1114.7813 Q505.6411,1114.5 506.2661,1113.9219 L506.2661,1116.6406 Z " fill="#000000"/><text fill="#000000" font-family="sans-serif" font-size="14" lengthAdjust="spacing" textLength="56.4443" x="523.7974" y="1115.8467">Meeting</text><line style="stroke:#181818;stroke-width:0.5;" x1="133" x2="938.5391" y1="1127" y2="1127"/><rect fill="transparent" height="6" style="stroke:#C82930;stroke-width:1;" width="6" x="140" y="1137.6484"/><text fill="#000000" font-family="sans-serif" font-size="14" lengthAdjust="spacing" textLength="63.7246" x="152" y="1143.9951">id: String</text><rect fill="transparent" height="6" style="stroke:#C82930;stroke-width:1;" width="6" x="140" y="1153.9453"/><text fill="#000000" font-family="sans-serif" font-size="14" lengthAdjust="spacing" textLength="78.3193" x="152" y="1160.292">title: String</text><rect fill="transparent" height="6" style="stroke:#C82930;stroke-width:1;" width="6" x="140" y="1170.2422"/><text fill="#000000" font-family="sans-serif" font-size="14" lengthAdjust="spacing" textLength="117.2158" x="152" y="1176.5889">organizer: String</text><rect fill="transparent" height="6" style="stroke:#C82930;stroke-width:1;" width="6" x="140" y="1186.5391"/><text fill="#000000" font-family="sans-serif" font-size="14" lengthAdjust="spacing" textLength="126.9639" x="152" y="1192.8857">participant: String</text><rect fill="transparent" height="6" style="stroke:#C82930;stroke-width:1;" width="6" x="140" y="1202.8359"/><text fill="#000000" font-family="sans-serif" font-size="14" lengthAdjust="spacing" textLength="181.1523" x="152" y="1209.1826">startTime: LocalDateTime</text><rect fill="transparent" height="6" style="stroke:#C82930;stroke-width:1;" width="6" x="140" y="1219.1328"/><text fill="#000000" font-family="sans-serif" font-size="14" lengthAdjust="spacing" textLength="174.918" x="152" y="1225.4795">endTime: LocalDateTime</text><line style="stroke:#181818;stroke-width:0.5;" x1="133" x2="938.5391" y1="1232.7813" y2="1232.7813"/><ellipse cx="143" cy="1246.4297" fill="#84BE84" rx="3" ry="3" style="stroke:#038048;stroke-width:1;"/><text fill="#000000" font-family="sans-serif" font-size="14" lengthAdjust="spacing" textLength="781.5391" x="152" y="1249.7764">Meeting(title: String, organizer: String, participant: String, startTime: LocalDateTime, endTime: LocalDateTime)</text><ellipse cx="143" cy="1262.7266" fill="#84BE84" rx="3" ry="3" style="stroke:#038048;stroke-width:1;"/><text fill="#000000" font-family="sans-serif" font-size="14" lengthAdjust="spacing" textLength="97.877" x="152" y="1266.0732">getId(): String</text><ellipse cx="143" cy="1279.0234" fill="#84BE84" rx="3" ry="3" style="stroke:#038048;stroke-width:1;"/><text fill="#000000" font-family="sans-serif" font-size="14" lengthAdjust="spacing" textLength="115.2949" x="152" y="1282.3701">getTitle(): String</text><ellipse cx="143" cy="1295.3203" fill="#84BE84" rx="3" ry="3" style="stroke:#038048;stroke-width:1;"/><text fill="#000000" font-family="sans-serif" font-size="14" lengthAdjust="spacing" textLength="153.583" x="152" y="1298.667">getOrganizer(): String</text><ellipse cx="143" cy="1311.6172" fill="#84BE84" rx="3" ry="3" style="stroke:#038048;stroke-width:1;"/><text fill="#000000" font-family="sans-serif" font-size="14" lengthAdjust="spacing" textLength="160.4326" x="152" y="1314.9639">getParticipant(): String</text><ellipse cx="143" cy="1327.9141" fill="#84BE84" rx="3" ry="3" style="stroke:#038048;stroke-width:1;"/><text fill="#000000" font-family="sans-serif" font-size="14" lengthAdjust="spacing" textLength="216.6582" x="152" y="1331.2607">getStartTime(): LocalDateTime</text><ellipse cx="143" cy="1344.2109" fill="#84BE84" rx="3" ry="3" style="stroke:#038048;stroke-width:1;"/><text fill="#000000" font-family="sans-serif" font-size="14" lengthAdjust="spacing" textLength="209.0635" x="152" y="1347.5576">getEndTime(): LocalDateTime</text><ellipse cx="143" cy="1360.5078" fill="#84BE84" rx="3" ry="3" style="stroke:#038048;stroke-width:1;"/><text fill="#000000" font-family="sans-serif" font-size="14" lengthAdjust="spacing" textLength="238.8408" x="152" y="1363.8545">overlaps(other: Meeting): boolean</text></g><!--class AgendaService--><g id="elem_AgendaService"><rect codeLine="36" fill="#F1F1F1" height="162.0781" id="AgendaService" rx="2.5" ry="2.5" style="stroke:#181818;stroke-width:0.5;" width="1025.5918" x="23" y="512.5"/><ellipse cx="478.9673" cy="528.5" fill="#ADD1B2" rx="11" ry="11" style="stroke:#181818;stroke-width:1;"/><path d="M481.936,534.1406 Q481.3579,534.4375 480.7173,534.5781 Q480.0767,534.7344 479.3735,534.7344 Q476.8735,534.7344 475.5454,533.0938 Q474.2329,531.4375 474.2329,528.3125 Q474.2329,525.1875 475.5454,523.5313 Q476.8735,521.875 479.3735,521.875 Q480.0767,521.875 480.7173,522.0313 Q481.3735,522.1875 481.936,522.4844 L481.936,525.2031 Q481.311,524.625 480.7173,524.3594 Q480.1235,524.0781 479.4985,524.0781 Q478.1548,524.0781 477.4673,525.1563 Q476.7798,526.2188 476.7798,528.3125 Q476.7798,530.4063 477.4673,531.4844 Q478.1548,532.5469 479.4985,532.5469 Q480.1235,532.5469 480.7173,532.2813 Q481.311,532 481.936,531.4219 L481.936,534.1406 Z " fill="#000000"/><text fill="#000000" font-family="sans-serif" font-size="14" lengthAdjust="spacing" textLength="105.1572" x="499.4673" y="533.3467">AgendaService</text><line style="stroke:#181818;stroke-width:0.5;" x1="24" x2="1047.5918" y1="544.5" y2="544.5"/><rect fill="transparent" height="6" style="stroke:#C82930;stroke-width:1;" width="6" x="31" y="555.1484"/><text fill="#000000" font-family="sans-serif" font-size="14" lengthAdjust="spacing" textLength="182.5947" x="43" y="561.4951">users: Map&lt;String, User&gt;</text><line style="stroke:#181818;stroke-width:0.5;" x1="24" x2="1047.5918" y1="568.7969" y2="568.7969"/><ellipse cx="34" cy="582.4453" fill="#84BE84" rx="3" ry="3" style="stroke:#038048;stroke-width:1;"/><text fill="#000000" font-family="sans-serif" font-size="14" lengthAdjust="spacing" textLength="116.0811" x="43" y="585.792">AgendaService()</text><ellipse cx="34" cy="598.7422" fill="#84BE84" rx="3" ry="3" style="stroke:#038048;stroke-width:1;"/><text fill="#000000" font-family="sans-serif" font-size="14" lengthAdjust="spacing" textLength="410.0195" x="43" y="602.0889">registerUser(username: String, password: String): boolean</text><ellipse cx="34" cy="615.0391" fill="#84BE84" rx="3" ry="3" style="stroke:#038048;stroke-width:1;"/><text fill="#000000" font-family="sans-serif" font-size="14" lengthAdjust="spacing" textLength="999.5918" x="43" y="618.3857">addMeeting(organizer: String, password: String, participant: String, title: String, startTime: LocalDateTime, endTime: LocalDateTime): boolean</text><ellipse cx="34" cy="631.3359" fill="#84BE84" rx="3" ry="3" style="stroke:#038048;stroke-width:1;"/><text fill="#000000" font-family="sans-serif" font-size="14" lengthAdjust="spacing" textLength="850.2402" x="43" y="634.6826">queryMeetings(username: String, password: String, startTime: LocalDateTime, endTime: LocalDateTime): List&lt;Meeting&gt;</text><ellipse cx="34" cy="647.6328" fill="#84BE84" rx="3" ry="3" style="stroke:#038048;stroke-width:1;"/><text fill="#000000" font-family="sans-serif" font-size="14" lengthAdjust="spacing" textLength="555.2285" x="43" y="650.9795">deleteMeeting(username: String, password: String, meetingId: String): boolean</text><ellipse cx="34" cy="663.9297" fill="#84BE84" rx="3" ry="3" style="stroke:#038048;stroke-width:1;"/><text fill="#000000" font-family="sans-serif" font-size="14" lengthAdjust="spacing" textLength="422.085" x="43" y="667.2764">clearMeetings(username: String, password: String): boolean</text></g><!--class AgendaView--><g id="elem_AgendaView"><rect codeLine="48" fill="#F1F1F1" height="227.2656" id="AgendaView" rx="2.5" ry="2.5" style="stroke:#181818;stroke-width:0.5;" width="395.4004" x="1105.5" y="480"/><ellipse cx="1255.4771" cy="496" fill="#ADD1B2" rx="11" ry="11" style="stroke:#181818;stroke-width:1;"/><path d="M1258.4458,501.6406 Q1257.8677,501.9375 1257.2271,502.0781 Q1256.5864,502.2344 1255.8833,502.2344 Q1253.3833,502.2344 1252.0552,500.5938 Q1250.7427,498.9375 1250.7427,495.8125 Q1250.7427,492.6875 1252.0552,491.0313 Q1253.3833,489.375 1255.8833,489.375 Q1256.5864,489.375 1257.2271,489.5313 Q1257.8833,489.6875 1258.4458,489.9844 L1258.4458,492.7031 Q1257.8208,492.125 1257.2271,491.8594 Q1256.6333,491.5781 1256.0083,491.5781 Q1254.6646,491.5781 1253.9771,492.6563 Q1253.2896,493.7188 1253.2896,495.8125 Q1253.2896,497.9063 1253.9771,498.9844 Q1254.6646,500.0469 1256.0083,500.0469 Q1256.6333,500.0469 1257.2271,499.7813 Q1257.8208,499.5 1258.4458,498.9219 L1258.4458,501.6406 Z " fill="#000000"/><text fill="#000000" font-family="sans-serif" font-size="14" lengthAdjust="spacing" textLength="86.9463" x="1275.9771" y="500.8467">AgendaView</text><line style="stroke:#181818;stroke-width:0.5;" x1="1106.5" x2="1499.9004" y1="512" y2="512"/><rect fill="transparent" height="6" style="stroke:#C82930;stroke-width:1;" width="6" x="1113.5" y="522.6484"/><text fill="#000000" font-family="sans-serif" font-size="14" lengthAdjust="spacing" textLength="122.1309" x="1125.5" y="528.9951">scanner: Scanner</text><line style="stroke:#181818;stroke-width:0.5;" x1="1106.5" x2="1499.9004" y1="536.2969" y2="536.2969"/><ellipse cx="1116.5" cy="549.9453" fill="#84BE84" rx="3" ry="3" style="stroke:#038048;stroke-width:1;"/><text fill="#000000" font-family="sans-serif" font-size="14" lengthAdjust="spacing" textLength="97.8701" x="1125.5" y="553.292">AgendaView()</text><ellipse cx="1116.5" cy="566.2422" fill="#84BE84" rx="3" ry="3" style="stroke:#038048;stroke-width:1;"/><text fill="#000000" font-family="sans-serif" font-size="14" lengthAdjust="spacing" textLength="250.5234" x="1125.5" y="569.5889">setScanner(scanner: Scanner): void</text><ellipse cx="1116.5" cy="582.5391" fill="#84BE84" rx="3" ry="3" style="stroke:#038048;stroke-width:1;"/><text fill="#000000" font-family="sans-serif" font-size="14" lengthAdjust="spacing" textLength="136.6777" x="1125.5" y="585.8857">showPrompt(): void</text><ellipse cx="1116.5" cy="598.8359" fill="#84BE84" rx="3" ry="3" style="stroke:#038048;stroke-width:1;"/><text fill="#000000" font-family="sans-serif" font-size="14" lengthAdjust="spacing" textLength="176.5859" x="1125.5" y="602.1826">readCommand(): String[]</text><ellipse cx="1116.5" cy="615.1328" fill="#84BE84" rx="3" ry="3" style="stroke:#038048;stroke-width:1;"/><text fill="#000000" font-family="sans-serif" font-size="14" lengthAdjust="spacing" textLength="150.7598" x="1125.5" y="618.4795">showWelcome(): void</text><ellipse cx="1116.5" cy="631.4297" fill="#84BE84" rx="3" ry="3" style="stroke:#038048;stroke-width:1;"/><text fill="#000000" font-family="sans-serif" font-size="14" lengthAdjust="spacing" textLength="234.4453" x="1125.5" y="634.7764">showError(message: String): void</text><ellipse cx="1116.5" cy="647.7266" fill="#84BE84" rx="3" ry="3" style="stroke:#038048;stroke-width:1;"/><text fill="#000000" font-family="sans-serif" font-size="14" lengthAdjust="spacing" textLength="256.1221" x="1125.5" y="651.0732">showSuccess(message: String): void</text><ellipse cx="1116.5" cy="664.0234" fill="#84BE84" rx="3" ry="3" style="stroke:#038048;stroke-width:1;"/><text fill="#000000" font-family="sans-serif" font-size="14" lengthAdjust="spacing" textLength="328.4805" x="1125.5" y="667.3701">showMeetings(meetings: List&lt;Meeting&gt;): void</text><ellipse cx="1116.5" cy="680.3203" fill="#84BE84" rx="3" ry="3" style="stroke:#038048;stroke-width:1;"/><text fill="#000000" font-family="sans-serif" font-size="14" lengthAdjust="spacing" textLength="369.4004" x="1125.5" y="683.667">parseDateTime(dateTimeStr: String): LocalDateTime</text><ellipse cx="1116.5" cy="696.6172" fill="#84BE84" rx="3" ry="3" style="stroke:#038048;stroke-width:1;"/><text fill="#000000" font-family="sans-serif" font-size="14" lengthAdjust="spacing" textLength="117.8174" x="1125.5" y="699.9639">showHelp(): void</text></g><!--class AgendaController--><g id="elem_AgendaController"><rect codeLine="64" fill="#F1F1F1" height="210.9688" id="AgendaController" rx="2.5" ry="2.5" style="stroke:#181818;stroke-width:0.5;" width="373.6689" x="812" y="169"/><ellipse cx="933.29" cy="185" fill="#ADD1B2" rx="11" ry="11" style="stroke:#181818;stroke-width:1;"/><path d="M936.2588,190.6406 Q935.6807,190.9375 935.04,191.0781 Q934.3994,191.2344 933.6963,191.2344 Q931.1963,191.2344 929.8682,189.5938 Q928.5557,187.9375 928.5557,184.8125 Q928.5557,181.6875 929.8682,180.0313 Q931.1963,178.375 933.6963,178.375 Q934.3994,178.375 935.04,178.5313 Q935.6963,178.6875 936.2588,178.9844 L936.2588,181.7031 Q935.6338,181.125 935.04,180.8594 Q934.4463,180.5781 933.8213,180.5781 Q932.4775,180.5781 931.79,181.6563 Q931.1025,182.7188 931.1025,184.8125 Q931.1025,186.9063 931.79,187.9844 Q932.4775,189.0469 933.8213,189.0469 Q934.4463,189.0469 935.04,188.7813 Q935.6338,188.5 936.2588,187.9219 L936.2588,190.6406 Z " fill="#000000"/><text fill="#000000" font-family="sans-serif" font-size="14" lengthAdjust="spacing" textLength="122.5889" x="953.79" y="189.8467">AgendaController</text><line style="stroke:#181818;stroke-width:0.5;" x1="813" x2="1184.6689" y1="201" y2="201"/><rect fill="transparent" height="6" style="stroke:#C82930;stroke-width:1;" width="6" x="820" y="211.6484"/><text fill="#000000" font-family="sans-serif" font-size="14" lengthAdjust="spacing" textLength="164.4727" x="832" y="217.9951">service: AgendaService</text><rect fill="transparent" height="6" style="stroke:#C82930;stroke-width:1;" width="6" x="820" y="227.9453"/><text fill="#000000" font-family="sans-serif" font-size="14" lengthAdjust="spacing" textLength="128.3516" x="832" y="234.292">view: AgendaView</text><line style="stroke:#181818;stroke-width:0.5;" x1="813" x2="1184.6689" y1="241.5938" y2="241.5938"/><ellipse cx="823" cy="255.2422" fill="#84BE84" rx="3" ry="3" style="stroke:#038048;stroke-width:1;"/><text fill="#000000" font-family="sans-serif" font-size="14" lengthAdjust="spacing" textLength="133.5127" x="832" y="258.5889">AgendaController()</text><ellipse cx="823" cy="271.5391" fill="#84BE84" rx="3" ry="3" style="stroke:#038048;stroke-width:1;"/><text fill="#000000" font-family="sans-serif" font-size="14" lengthAdjust="spacing" textLength="82.3252" x="832" y="274.8857">start(): void</text><ellipse cx="823" cy="287.8359" fill="#84BE84" rx="3" ry="3" style="stroke:#038048;stroke-width:1;"/><text fill="#000000" font-family="sans-serif" font-size="14" lengthAdjust="spacing" textLength="287.4512" x="832" y="291.1826">handleRegister(command: String[]): void</text><ellipse cx="823" cy="304.1328" fill="#84BE84" rx="3" ry="3" style="stroke:#038048;stroke-width:1;"/><text fill="#000000" font-family="sans-serif" font-size="14" lengthAdjust="spacing" textLength="256.5322" x="832" y="307.4795">handleAdd(command: String[]): void</text><ellipse cx="823" cy="320.4297" fill="#84BE84" rx="3" ry="3" style="stroke:#038048;stroke-width:1;"/><text fill="#000000" font-family="sans-serif" font-size="14" lengthAdjust="spacing" textLength="271.7285" x="832" y="323.7764">handleQuery(command: String[]): void</text><ellipse cx="823" cy="336.7266" fill="#84BE84" rx="3" ry="3" style="stroke:#038048;stroke-width:1;"/><text fill="#000000" font-family="sans-serif" font-size="14" lengthAdjust="spacing" textLength="275.1807" x="832" y="340.0732">handleDelete(command: String[]): void</text><ellipse cx="823" cy="353.0234" fill="#84BE84" rx="3" ry="3" style="stroke:#038048;stroke-width:1;"/><text fill="#000000" font-family="sans-serif" font-size="14" lengthAdjust="spacing" textLength="265.7949" x="832" y="356.3701">handleClear(command: String[]): void</text><ellipse cx="823" cy="369.3203" fill="#84BE84" rx="3" ry="3" style="stroke:#038048;stroke-width:1;"/><text fill="#000000" font-family="sans-serif" font-size="14" lengthAdjust="spacing" textLength="347.6689" x="832" y="372.667">handleInvalidCommand(command: String[]): void</text></g><!--class App--><g id="elem_App"><rect codeLine="78" fill="#F1F1F1" height="64.2969" id="App" rx="2.5" ry="2.5" style="stroke:#181818;stroke-width:0.5;" width="203.085" x="897.5" y="7"/><ellipse cx="981.1172" cy="23" fill="#ADD1B2" rx="11" ry="11" style="stroke:#181818;stroke-width:1;"/><path d="M984.0859,28.6406 Q983.5078,28.9375 982.8672,29.0781 Q982.2266,29.2344 981.5234,29.2344 Q979.0234,29.2344 977.6953,27.5938 Q976.3828,25.9375 976.3828,22.8125 Q976.3828,19.6875 977.6953,18.0313 Q979.0234,16.375 981.5234,16.375 Q982.2266,16.375 982.8672,16.5313 Q983.5234,16.6875 984.0859,16.9844 L984.0859,19.7031 Q983.4609,19.125 982.8672,18.8594 Q982.2734,18.5781 981.6484,18.5781 Q980.3047,18.5781 979.6172,19.6563 Q978.9297,20.7188 978.9297,22.8125 Q978.9297,24.9063 979.6172,25.9844 Q980.3047,27.0469 981.6484,27.0469 Q982.2734,27.0469 982.8672,26.7813 Q983.4609,26.5 984.0859,25.9219 L984.0859,28.6406 Z " fill="#000000"/><text fill="#000000" font-family="sans-serif" font-size="14" lengthAdjust="spacing" textLength="27.3506" x="1001.6172" y="27.8467">App</text><line style="stroke:#181818;stroke-width:0.5;" x1="898.5" x2="1099.585" y1="39" y2="39"/><line style="stroke:#181818;stroke-width:0.5;" x1="898.5" x2="1099.585" y1="47" y2="47"/><ellipse cx="908.5" cy="60.6484" fill="#84BE84" rx="3" ry="3" style="stroke:#038048;stroke-width:1;"/><text fill="#000000" font-family="sans-serif" font-size="14" lengthAdjust="spacing" textLength="177.085" x="917.5" y="63.9951">main(args: String[]): void</text></g><!--link App to AgendaController--><g id="link_App_AgendaController"><path codeLine="82" d="M999,71.01 C999,96.19 999,127.24 999,162.78 " fill="transparent" id="App-to-AgendaController" style="stroke:#181818;stroke-width:1;"/><polygon fill="#181818" points="999,168.78,1003,159.78,999,163.78,995,159.78,999,168.78" style="stroke:#181818;stroke-width:1;"/><text fill="#000000" font-family="sans-serif" font-size="13" lengthAdjust="spacing" textLength="109.5542" x="1000" y="114.0669">&#21019;&#24314;&#24182;&#35843;&#29992; start()</text></g><!--link AgendaController to AgendaService--><g id="link_AgendaController_AgendaService"><path codeLine="83" d="M846.11,380.18 C783.29,423.19 716.661,468.8106 658.101,508.9006 " fill="transparent" id="AgendaController-to-AgendaService" style="stroke:#181818;stroke-width:1;"/><polygon fill="#181818" points="653.15,512.29,662.836,510.5065,657.2758,509.4655,658.3168,503.9053,653.15,512.29" style="stroke:#181818;stroke-width:1;"/><text fill="#000000" font-family="sans-serif" font-size="13" lengthAdjust="spacing" textLength="91" x="796" y="425.0669">&#20351;&#29992;&#26381;&#21153;&#23618;&#36923;&#36753;</text></g><!--link AgendaController to AgendaView--><g id="link_AgendaController_AgendaView"><path codeLine="84" d="M1099.38,380.18 C1129.99,412.1 1159.6271,442.9895 1190.7271,475.4195 " fill="transparent" id="AgendaController-to-AgendaView" style="stroke:#181818;stroke-width:1;"/><polygon fill="#181818" points="1194.88,479.75,1191.5376,470.4856,1191.4192,476.1412,1185.7636,476.0228,1194.88,479.75" style="stroke:#181818;stroke-width:1;"/><text fill="#000000" font-family="sans-serif" font-size="13" lengthAdjust="spacing" textLength="117" x="1142" y="425.0669">&#35843;&#29992;&#35270;&#22270;&#23637;&#31034;&#21644;&#36755;&#20837;</text></g><!--link AgendaService to User--><g id="link_AgendaService_User"><path codeLine="85" d="M536,674.9 C536,714.98 536,757.94 536,800.9 " fill="transparent" id="AgendaService-to-User" style="stroke:#181818;stroke-width:1;"/><polygon fill="#181818" points="536,806.9,540,797.9,536,801.9,532,797.9,536,806.9" style="stroke:#181818;stroke-width:1;"/><text fill="#000000" font-family="sans-serif" font-size="13" lengthAdjust="spacing" textLength="52" x="537" y="752.0669">&#29992;&#25143;&#31649;&#29702;</text></g><!--reverse link User to Meeting--><g id="link_User_Meeting"><path codeLine="86" d="M536,1030.23 C536,1054.71 536,1069.14 536,1094.79 " fill="transparent" id="User-backto-Meeting" style="stroke:#181818;stroke-width:1;"/><polygon fill="#181818" points="536,1018.23,532,1024.23,536,1030.23,540,1024.23,536,1018.23" style="stroke:#181818;stroke-width:1;"/><text fill="#000000" font-family="sans-serif" font-size="13" lengthAdjust="spacing" textLength="52" x="537" y="1061.0669">&#21253;&#21547;&#20250;&#35758;</text><text fill="#000000" font-family="sans-serif" font-size="13" lengthAdjust="spacing" textLength="8.271" x="527.7544" y="1037.91">1</text><text fill="#000000" font-family="sans-serif" font-size="13" lengthAdjust="spacing" textLength="6.5" x="529.8622" y="1083.8877">*</text></g><!--SRC=[dLPDJzH06BxlhvZigS3kmMj3I0YGI08HNT23yJ2sapAXxTIPOGaQ4gE148C9Vbt42ub64nCY5usW-6Uek_uBPzffTwOVQx6dxRpFC-yxypplssKRE8mWXG68eBC1FTJZspu253aSXfwFMYsr3jhBn4L-6png0V4uFcGCh354rO9ykc1JB8GmG3ReSOf3Jmj5Wh15g5iH2X3YOeNPO0apFhsSlixaYAaaaLNSl5FQSqAZU8YlAO8rKKgQn5SKlIwk2c4oNbSPT5srQgbZs40j25QVO5S3KnIGFcgETtm4gLv57jzfQJ8eXA44hhfeZhbVfGsX7WpnGqGhTQCSEpY28Q-8CYx2grYAiaGSwCz3ZkIh1a6XEmumbPLl6TLroaLrgchfr9RGgSbSCCbYhVohifwwu8sikdfpvRNMGNfPvOd1Qcv7u1RISun32LjH7qRC8dnTtjZ8KlS94IuAbMjsj8Rk8Th73Z9RUjOJjmPLgDJReaMNOJITNRriCBqP3B8rOJZV4ms4QDD6DkikjLgbDymjQjnICDcLpLDLs8DDHBVpDlttwVuhRTq04aCPyNocD4ckvixY-DisPy-L9JEjTXkZhIgVoNN3PCo1OPZ8cluecKio36SnqKSfrYgIomELhPEj5Kg2Y5jLqncwSoG8OAYDXBlt2lGxo7T8semLcozGIgYOx8o9SsjNKm7jRJgEm3K3vqBKV2lBBE5-XZB_MAxw8N9eYUgcYSnu7VbHuPEZApf7Gaw9xoDQfUieQggRJWRR71GQe2_KjJMbI_AFDZPD8FkfGf9reQMFRgdXOpcfkYDjwnYphjiSV5EsVtFuVDAmpV5piX6RmnV3FlHnRkInl4HIfLiKAQccG01nQ44gJLPa2Rn4ThipPQLj4EyVnUTdyVUlmozF1wy_PRAqIj0HF_lIsE3ovo_1-VtkUVpiE3vzykVn-V3YnJXgCZniaEOQVjoBZoxYqpU3zsVnouFXnQjuzqFBp26foLzM6yXC-zy69yU3mxrMijQ-rWQJtIveJxRpFrJYH0UxyU7donzlXoSdVm40]--></g></svg>