<?xml version="1.0" standalone="no"?>
<svg xmlns="http://www.w3.org/2000/svg" xmlns:xlink="http://www.w3.org/1999/xlink" width="449pt" height="140pt" viewBox="0.00 0.00 448.65 140.19">
<g id="graph0" class="graph" transform="translate(4,136.19000244140625) scale(1)" data-name="DFA">

<polygon fill="white" stroke="none" points="-4,4 -4,-136.19 444.65,-136.19 444.65,4 -4,4"/>
<!-- start -->
<g id="node1" class="node" pointer-events="visible" data-name="start">

</g>
<!-- q0 -->
<g id="node2" class="node" pointer-events="visible" data-name="q0">

<ellipse fill="none" stroke="black" cx="138.8" cy="-72.69" rx="20.86" ry="20.86"/>
<ellipse fill="none" stroke="black" cx="138.8" cy="-72.69" rx="24.89" ry="24.89"/>
<text text-anchor="middle" x="138.8" y="-68.49" font-family="Times,serif" font-size="14.00">q0</text>
</g>
<!-- start&#45;&gt;q0 -->
<g id="edge1" class="edge" data-name="start-&gt;q0">

<path fill="none" stroke="black" d="M53.74,-72.69C68.19,-72.69 86.43,-72.69 102.22,-72.69"/>
<polygon fill="black" stroke="black" points="102.21,-76.19 112.21,-72.69 102.21,-69.19 102.21,-76.19"/>
<text text-anchor="middle" x="84.05" y="-76.89" font-family="Times,serif" font-size="14.00">start</text>
</g>
<!-- q1 -->
<g id="node3" class="node" pointer-events="visible" data-name="q1">

<ellipse fill="none" stroke="black" cx="323.57" cy="-72.69" rx="20.86" ry="20.86"/>
<ellipse fill="none" stroke="black" cx="323.57" cy="-72.69" rx="24.89" ry="24.89"/>
<text text-anchor="middle" x="323.57" y="-68.49" font-family="Times,serif" font-size="14.00">q1</text>
</g>
<!-- q0&#45;&gt;q1 -->
<g id="edge2" class="edge" data-name="q0-&gt;q1">

<path fill="none" stroke="black" d="M162.57,-81.32C175.29,-85.68 191.54,-90.5 206.49,-92.69 228.21,-95.88 234.16,-95.88 255.88,-92.69 266.86,-91.08 278.54,-88.06 289,-84.83"/>
<polygon fill="black" stroke="black" points="289.93,-88.21 298.36,-81.79 287.76,-81.56 289.93,-88.21"/>
<text text-anchor="middle" x="231.18" y="-98.89" font-family="Times,serif" font-size="14.00">0</text>
</g>
<!-- q2 -->
<g id="node4" class="node" pointer-events="visible" data-name="q2">

<ellipse fill="none" stroke="black" cx="231.18" cy="-24.69" rx="20.86" ry="20.86"/>
<ellipse fill="none" stroke="black" cx="231.18" cy="-24.69" rx="24.89" ry="24.89"/>
<text text-anchor="middle" x="231.18" y="-20.49" font-family="Times,serif" font-size="14.00">q2</text>
</g>
<!-- q0&#45;&gt;q2 -->
<g id="edge3" class="edge" data-name="q0-&gt;q2">

<path fill="none" stroke="black" d="M161.22,-61.32C172.39,-55.38 186.28,-48.01 198.66,-41.44"/>
<polygon fill="black" stroke="black" points="200.08,-44.64 207.27,-36.86 196.79,-38.46 200.08,-44.64"/>
<text text-anchor="middle" x="184.99" y="-54.89" font-family="Times,serif" font-size="14.00">1</text>
</g>
<!-- q1&#45;&gt;q1 -->
<g id="edge4" class="edge" data-name="q1-&gt;q1">

<path fill="none" stroke="black" d="M315.01,-96.4C314.31,-106.63 317.17,-115.39 323.57,-115.39 327.37,-115.39 329.92,-112.3 331.22,-107.65"/>
<polygon fill="black" stroke="black" points="334.69,-108.16 332.01,-97.91 327.72,-107.6 334.69,-108.16"/>
<text text-anchor="middle" x="323.57" y="-119.59" font-family="Times,serif" font-size="14.00">0</text>
</g>
<!-- q3 -->
<g id="node5" class="node" pointer-events="visible" data-name="q3">

<ellipse fill="none" stroke="black" cx="415.96" cy="-72.69" rx="20.86" ry="20.86"/>
<ellipse fill="none" stroke="black" cx="415.96" cy="-72.69" rx="24.89" ry="24.89"/>
<text text-anchor="middle" x="415.96" y="-68.49" font-family="Times,serif" font-size="14.00">q3</text>
</g>
<!-- q1&#45;&gt;q3 -->
<g id="edge5" class="edge" data-name="q1-&gt;q3">

<path fill="none" stroke="black" d="M348.79,-72.69C358.22,-72.69 369.2,-72.69 379.48,-72.69"/>
<polygon fill="black" stroke="black" points="379.16,-76.19 389.16,-72.69 379.16,-69.19 379.16,-76.19"/>
<text text-anchor="middle" x="369.76" y="-76.89" font-family="Times,serif" font-size="14.00">1</text>
</g>
<!-- q2&#45;&gt;q1 -->
<g id="edge6" class="edge" data-name="q2-&gt;q1">

<path fill="none" stroke="black" d="M253.6,-36.07C264.78,-42 278.67,-49.38 291.04,-55.95"/>
<polygon fill="black" stroke="black" points="289.18,-58.92 299.65,-60.52 292.46,-52.74 289.18,-58.92"/>
<text text-anchor="middle" x="277.38" y="-54.89" font-family="Times,serif" font-size="14.00">0</text>
</g>
<!-- q4 -->
<g id="edge7" class="edge" data-name="q2-&gt;q2" data-comment="q4">

<path fill="none" stroke="black" d="M222.63,-48.4C221.93,-58.63 224.78,-67.39 231.18,-67.39 234.99,-67.39 237.54,-64.3 238.84,-59.65"/>
<polygon fill="black" stroke="black" points="242.31,-60.16 239.62,-49.91 235.33,-59.6 242.31,-60.16"/>
<text text-anchor="middle" x="231.18" y="-71.59" font-family="Times,serif" font-size="14.00">1</text>
</g>
<!-- q3&#45;&gt;q1 -->
<g id="edge8" class="edge" data-name="q3-&gt;q1">

<path fill="none" stroke="black" d="M394.04,-59.9C387.61,-56.63 380.35,-53.56 373.26,-51.89 367,-50.42 360.52,-51.3 354.41,-53.37"/>
<polygon fill="black" stroke="black" points="352.99,-50.17 345.32,-57.49 355.88,-56.55 352.99,-50.17"/>
<text text-anchor="middle" x="369.76" y="-56.89" font-family="Times,serif" font-size="14.00">0</text>
</g>
</g>
</svg>