<?xml version="1.0" standalone="no"?>
<svg xmlns="http://www.w3.org/2000/svg" xmlns:xlink="http://www.w3.org/1999/xlink" width="419pt" height="87pt" viewBox="0.00 0.00 419.15 86.89">
<g id="graph0" class="graph" transform="translate(4,82.88999938964844) scale(1)" data-name="DFA">

<polygon fill="white" stroke="none" points="-4,4 -4,-82.89 415.15,-82.89 415.15,4 -4,4"/>
<!-- A -->
<g id="node1" class="node" pointer-events="visible" data-name="A">

<ellipse fill="none" stroke="black" cx="136.11" cy="-22.08" rx="18.02" ry="18.02"/>
<ellipse fill="none" stroke="black" cx="136.11" cy="-22.08" rx="22.02" ry="22.02"/>
<text text-anchor="middle" x="136.11" y="-17.88" font-family="Times,serif" font-size="14.00">A</text>
</g>
<!-- A&#45;&gt;A -->
<g id="edge2" class="edge" data-name="A-&gt;A">

<path fill="none" stroke="black" d="M128.15,-43.07C127.17,-53.17 129.83,-62.09 136.11,-62.09 139.85,-62.09 142.3,-58.94 143.47,-54.28"/>
<polygon fill="black" stroke="black" points="146.95,-54.76 143.99,-44.58 139.96,-54.38 146.95,-54.76"/>
<text text-anchor="middle" x="136.11" y="-66.29" font-family="Times,serif" font-size="14.00">1</text>
</g>
<!-- B -->
<g id="node2" class="node" pointer-events="visible" data-name="B">

<ellipse fill="none" stroke="black" cx="223.12" cy="-22.08" rx="18" ry="18"/>
<ellipse fill="none" stroke="black" cx="223.12" cy="-22.08" rx="22" ry="22"/>
<text text-anchor="middle" x="223.12" y="-17.88" font-family="Times,serif" font-size="14.00">B</text>
</g>
<!-- A&#45;&gt;B -->
<g id="edge3" class="edge" data-name="A-&gt;B">

<path fill="none" stroke="black" d="M158.57,-22.08C167.93,-22.08 179.12,-22.08 189.48,-22.08"/>
<polygon fill="black" stroke="black" points="189.17,-25.58 199.17,-22.08 189.17,-18.58 189.17,-25.58"/>
<text text-anchor="middle" x="179.62" y="-26.28" font-family="Times,serif" font-size="14.00">0</text>
</g>
<!-- B&#45;&gt;B -->
<g id="edge4" class="edge" data-name="B-&gt;B">

<path fill="none" stroke="black" d="M215.17,-43.07C214.18,-53.16 216.84,-62.08 223.12,-62.08 226.86,-62.08 229.31,-58.93 230.48,-54.27"/>
<polygon fill="black" stroke="black" points="233.96,-54.75 231,-44.58 226.97,-54.38 233.96,-54.75"/>
<text text-anchor="middle" x="223.12" y="-66.28" font-family="Times,serif" font-size="14.00">0</text>
</g>
<!-- C -->
<g id="node3" class="node" pointer-events="visible" data-name="C">

<ellipse fill="none" stroke="black" cx="310.12" cy="-22.08" rx="18" ry="18"/>
<ellipse fill="none" stroke="black" cx="310.12" cy="-22.08" rx="22" ry="22"/>
<text text-anchor="middle" x="310.12" y="-17.88" font-family="Times,serif" font-size="14.00">C</text>
</g>
<!-- B&#45;&gt;C -->
<g id="edge5" class="edge" data-name="B-&gt;C">

<path fill="none" stroke="black" d="M245.57,-22.08C254.94,-22.08 266.12,-22.08 276.48,-22.08"/>
<polygon fill="black" stroke="black" points="276.17,-25.58 286.17,-22.08 276.17,-18.58 276.17,-25.58"/>
<text text-anchor="middle" x="266.62" y="-26.28" font-family="Times,serif" font-size="14.00">1</text>
</g>
<!-- C&#45;&gt;B -->
<g id="edge6" class="edge" data-name="C-&gt;B">

<path fill="none" stroke="black" d="M292.61,-8.54C284.07,-3.14 273.33,1.28 263.12,-1.28 259.48,-2.19 255.8,-3.51 252.23,-5.06"/>
<polygon fill="black" stroke="black" points="250.75,-1.89 243.37,-9.49 253.88,-8.15 250.75,-1.89"/>
<text text-anchor="middle" x="266.62" y="-6.28" font-family="Times,serif" font-size="14.00">0</text>
</g>
<!-- start -->
<!-- start -->
<g id="node4" class="node" pointer-events="visible" data-name="start">

</g><g id="node5" class="node" pointer-events="visible" data-name="D" data-comment="start">

<ellipse fill="none" stroke="black" cx="393.13" cy="-22.08" rx="18.02" ry="18.02"/>
<text text-anchor="middle" x="393.13" y="-17.88" font-family="Times,serif" font-size="14.00">D</text>
</g>
<!-- start&#45;&gt;A -->

<!-- start&#45;&gt;A -->
<g id="edge1" class="edge" data-name="start-&gt;A">

<path fill="none" stroke="black" d="M53.93,-22.08C68.53,-22.08 86.91,-22.08 102.49,-22.08"/>
<polygon fill="black" stroke="black" points="102.23,-25.58 112.23,-22.08 102.23,-18.58 102.23,-25.58"/>
<text text-anchor="middle" x="84.05" y="-26.28" font-family="Times,serif" font-size="14.00">start</text>
</g><g id="edge7" class="edge" data-name="C-&gt;D" data-comment="start-&gt;A">

<path fill="none" stroke="black" d="M332.41,-22.08C341.91,-22.08 353.25,-22.08 363.48,-22.08"/>
<polygon fill="black" stroke="black" points="363.3,-25.58 373.3,-22.08 363.3,-18.58 363.3,-25.58"/>
<text text-anchor="middle" x="353.62" y="-26.28" font-family="Times,serif" font-size="14.00">1</text>
</g>

<!-- D&#45;&gt;D -->
<g id="edge8" class="edge" data-name="D-&gt;D">

<path fill="none" stroke="black" d="M386.13,-39.12C384.7,-48.94 387.04,-58.09 393.13,-58.09 396.66,-58.09 398.93,-55.03 399.94,-50.55"/>
<polygon fill="black" stroke="black" points="403.43,-50.69 400.11,-40.63 396.43,-50.57 403.43,-50.69"/>
<text text-anchor="middle" x="393.13" y="-62.29" font-family="Times,serif" font-size="14.00">0,1</text>
</g>
</g>
</svg>