<?xml version="1.0" standalone="no"?>
<svg xmlns="http://www.w3.org/2000/svg" xmlns:xlink="http://www.w3.org/1999/xlink" width="449pt" height="123pt" viewBox="0.00 0.00 448.65 123.19">
<g id="graph0" class="graph" transform="translate(4,119.19000244140625) scale(1)" data-name="">

<polygon fill="white" stroke="none" points="-4,4 -4,-119.19 444.65,-119.19 444.65,4 -4,4"/>
<!-- start -->
<g id="node1" class="node" pointer-events="visible">

</g>
<!-- q0 -->
<g id="node2" class="node" pointer-events="visible">

<ellipse fill="none" stroke="black" cx="138.8" cy="-55.69" rx="20.86" ry="20.86"/>
<ellipse fill="none" stroke="black" cx="138.8" cy="-55.69" rx="24.89" ry="24.89"/>
<text text-anchor="middle" x="138.8" y="-51.49" font-family="Times,serif" font-size="14.00">q0</text>
</g>
<!-- start&#45;&gt;q0 -->
<g id="edge1" class="edge">

<path fill="none" stroke="black" d="M53.74,-55.69C68.19,-55.69 86.43,-55.69 102.22,-55.69"/>
<polygon fill="black" stroke="black" points="102.21,-59.19 112.21,-55.69 102.21,-52.19 102.21,-59.19"/>
<text text-anchor="middle" x="84.05" y="-59.89" font-family="Times,serif" font-size="14.00">start</text>
</g>
<!-- q1 -->
<g id="node3" class="node" pointer-events="visible">

<ellipse fill="none" stroke="black" cx="323.57" cy="-55.69" rx="20.86" ry="20.86"/>
<ellipse fill="none" stroke="black" cx="323.57" cy="-55.69" rx="24.89" ry="24.89"/>
<text text-anchor="middle" x="323.57" y="-51.49" font-family="Times,serif" font-size="14.00">q1</text>
</g>
<!-- q0&#45;&gt;q1 -->
<g id="edge2" class="edge">

<path fill="none" stroke="black" d="M163.52,-60.38C169.37,-61.34 175.64,-62.21 181.49,-62.69 225.51,-66.36 236.86,-66.36 280.88,-62.69 283.07,-62.51 285.32,-62.27 287.59,-62"/>
<polygon fill="black" stroke="black" points="287.95,-65.48 297.35,-60.59 286.95,-58.56 287.95,-65.48"/>
<text text-anchor="middle" x="231.18" y="-68.89" font-family="Times,serif" font-size="14.00">0</text>
</g>
<!-- q2 -->
<g id="node4" class="node" pointer-events="visible">

<ellipse fill="none" stroke="black" cx="231.18" cy="-24.69" rx="20.86" ry="20.86"/>
<ellipse fill="none" stroke="black" cx="231.18" cy="-24.69" rx="24.89" ry="24.89"/>
<text text-anchor="middle" x="231.18" y="-20.49" font-family="Times,serif" font-size="14.00">q2</text>
</g>
<!-- q0&#45;&gt;q2 -->
<g id="edge3" class="edge">

<path fill="none" stroke="black" d="M162.61,-47.87C172.8,-44.37 185.04,-40.18 196.27,-36.32"/>
<polygon fill="black" stroke="black" points="197.31,-39.67 205.64,-33.11 195.04,-33.05 197.31,-39.67"/>
<text text-anchor="middle" x="184.99" y="-45.89" font-family="Times,serif" font-size="14.00">1</text>
</g>
<!-- q1&#45;&gt;q1 -->
<g id="edge4" class="edge">

<path fill="none" stroke="black" d="M315.01,-79.4C314.31,-89.63 317.17,-98.39 323.57,-98.39 327.37,-98.39 329.92,-95.3 331.22,-90.65"/>
<polygon fill="black" stroke="black" points="334.69,-91.16 332.01,-80.91 327.72,-90.6 334.69,-91.16"/>
<text text-anchor="middle" x="323.57" y="-102.59" font-family="Times,serif" font-size="14.00">0</text>
</g>
<!-- q3 -->
<g id="node5" class="node" pointer-events="visible">

<ellipse fill="none" stroke="black" cx="415.96" cy="-55.69" rx="20.86" ry="20.86"/>
<ellipse fill="none" stroke="black" cx="415.96" cy="-55.69" rx="24.89" ry="24.89"/>
<text text-anchor="middle" x="415.96" y="-51.49" font-family="Times,serif" font-size="14.00">q3</text>
</g>
<!-- q1&#45;&gt;q3 -->
<g id="edge5" class="edge">

<path fill="none" stroke="black" d="M348.79,-55.69C358.22,-55.69 369.2,-55.69 379.48,-55.69"/>
<polygon fill="black" stroke="black" points="379.16,-59.19 389.16,-55.69 379.16,-52.19 379.16,-59.19"/>
<text text-anchor="middle" x="369.76" y="-59.89" font-family="Times,serif" font-size="14.00">1</text>
</g>
<!-- q2&#45;&gt;q1 -->
<g id="edge6" class="edge">

<path fill="none" stroke="black" d="M254.99,-32.52C265.19,-36.01 277.42,-40.21 288.66,-44.06"/>
<polygon fill="black" stroke="black" points="287.43,-47.34 298.02,-47.27 289.7,-40.72 287.43,-47.34"/>
<text text-anchor="middle" x="277.38" y="-45.89" font-family="Times,serif" font-size="14.00">0</text>
</g>
<!-- q4 -->

<g id="edge7" class="edge">

<path fill="none" stroke="black" d="M395.58,-41.11C386.86,-36.22 376.29,-32.53 366.26,-34.89 362.83,-35.7 359.36,-36.84 355.96,-38.17"/>
<polygon fill="black" stroke="black" points="354.54,-34.97 346.87,-42.28 357.42,-41.35 354.54,-34.97"/>
<text text-anchor="middle" x="369.76" y="-39.89" font-family="Times,serif" font-size="14.00">0</text>
</g></g>
</svg>