<?xml version="1.0" standalone="no"?>
<svg xmlns="http://www.w3.org/2000/svg" xmlns:xlink="http://www.w3.org/1999/xlink" width="286pt" height="78pt" viewBox="0.00 0.00 285.88 78.00">
<g id="graph0" class="graph" transform="translate(4,74) scale(1)" data-name="S">

<polygon fill="white" stroke="none" points="-4,4 -4,-74 281.88,-74 281.88,4 -4,4" style=""/>
<!-- 0 -->
<g id="node1" class="node" pointer-events="visible" data-name="0">

<ellipse fill="none" stroke="black" cx="18" cy="-22" rx="18" ry="18" style=""/>
<text text-anchor="middle" x="18" y="-17.8" font-family="Times,serif" font-size="14.00" style="">0</text>
</g>
<!-- 1 -->
<g id="node2" class="node" pointer-events="visible" data-name="1">

<ellipse fill="none" stroke="black" cx="94.66" cy="-52" rx="18" ry="18" style=""/>
<text text-anchor="middle" x="94.66" y="-47.8" font-family="Times,serif" font-size="14.00" style="">1</text>
</g>
<!-- 0&#45;&gt;1 -->
<g id="edge1" class="edge" data-name="0-&gt;1">

<path fill="none" stroke="black" d="M35.2,-28.51C44.5,-32.24 56.4,-37.03 67.03,-41.3" style=""/>
<polygon fill="black" stroke="black" points="65.5,-44.46 76.09,-44.94 68.11,-37.96 65.5,-44.46" style=""/>
<text text-anchor="middle" x="56.33" y="-42.2" font-family="Times,serif" font-size="14.00" style="">(</text>
</g>
<!-- 3 -->
<g id="node4" class="node" pointer-events="visible" data-name="3">

<ellipse fill="none" stroke="black" cx="255.88" cy="-22" rx="18" ry="18" style=""/>
<ellipse fill="none" stroke="black" cx="255.88" cy="-22" rx="22" ry="22" style=""/>
<text text-anchor="middle" x="255.88" y="-17.8" font-family="Times,serif" font-size="14.00" style="">3</text>
</g>
<!-- 0&#45;&gt;3 -->
<g id="edge4" class="edge" data-name="0-&gt;3">

<path fill="none" stroke="black" d="M36.34,-22C75.55,-22 171.5,-22 222.22,-22" style=""/>
<polygon fill="black" stroke="black" points="221.98,-25.5 231.98,-22 221.98,-18.5 221.98,-25.5" style=""/>
<text text-anchor="middle" x="134.94" y="-26.2" font-family="Times,serif" font-size="14.00" style="">a</text>
</g>
<!-- 2 -->
<g id="node3" class="node" pointer-events="visible" data-name="2">

<ellipse fill="none" stroke="black" cx="175.21" cy="-52" rx="18" ry="18" style=""/>
<text text-anchor="middle" x="175.21" y="-47.8" font-family="Times,serif" font-size="14.00" style="">2</text>
</g>
<!-- 1&#45;&gt;2 -->
<g id="edge2" class="edge" data-name="1-&gt;2">

<path fill="none" stroke="black" d="M113.1,-52C122.65,-52 134.75,-52 145.65,-52" style=""/>
<polygon fill="black" stroke="black" points="145.32,-55.5 155.32,-52 145.32,-48.5 145.32,-55.5" style=""/>
<text text-anchor="middle" x="134.94" y="-56.2" font-family="Times,serif" font-size="14.00" style="">L</text>
</g>
<!-- 2&#45;&gt;3 -->
<g id="edge3" class="edge" data-name="2-&gt;3">

<path fill="none" stroke="black" d="M192.51,-45.78C201.76,-42.26 213.63,-37.73 224.53,-33.57" style=""/>
<polygon fill="black" stroke="black" points="225.46,-36.96 233.56,-30.13 222.97,-30.42 225.46,-36.96" style=""/>
<text text-anchor="middle" x="213.54" y="-42.2" font-family="Times,serif" font-size="14.00" style="">)</text>
</g>
</g>
</svg>