<?xml version="1.0" standalone="no"?>
<svg xmlns="http://www.w3.org/2000/svg" xmlns:xlink="http://www.w3.org/1999/xlink" width="307pt" height="86pt" viewBox="0.00 0.00 306.52 86.39">
<g id="graph0" class="graph" transform="translate(4,82.38999938964844) scale(1)" data-name="LPrime">

<polygon fill="white" stroke="none" points="-4,4 -4,-82.39 302.52,-82.39 302.52,4 -4,4"/>
<!-- 9 -->
<g id="node1" class="node" pointer-events="visible" data-name="9">

<ellipse fill="none" stroke="black" cx="18" cy="-24.69" rx="18" ry="18"/>
<text text-anchor="middle" x="18" y="-20.49" font-family="Times,serif" font-size="14.00">9</text>
</g>
<!-- 10 -->
<g id="node2" class="node" pointer-events="visible" data-name="10">

<ellipse fill="none" stroke="black" cx="96.19" cy="-57.69" rx="20.89" ry="20.89"/>
<text text-anchor="middle" x="96.19" y="-53.49" font-family="Times,serif" font-size="14.00">10</text>
</g>
<!-- 9&#45;&gt;10 -->
<g id="edge1" class="edge" data-name="9-&gt;10">

<path fill="none" stroke="black" d="M34.79,-31.53C43.78,-35.43 55.34,-40.43 65.93,-45.02"/>
<polygon fill="black" stroke="black" points="64.51,-48.22 75.08,-48.98 67.29,-41.8 64.51,-48.22"/>
<text text-anchor="middle" x="55.75" y="-44.89" font-family="Times,serif" font-size="14.00">,</text>
</g>
<!-- 12 -->
<g id="node4" class="node" pointer-events="visible" data-name="12">

<ellipse fill="none" stroke="black" cx="273.83" cy="-24.69" rx="20.86" ry="20.86"/>
<ellipse fill="none" stroke="black" cx="273.83" cy="-24.69" rx="24.89" ry="24.89"/>
<text text-anchor="middle" x="273.83" y="-20.49" font-family="Times,serif" font-size="14.00">12</text>
</g>
<!-- 9&#45;&gt;12 -->
<g id="edge4" class="edge" data-name="9-&gt;12">

<path fill="none" stroke="black" d="M36.45,-24.69C77.77,-24.69 182.27,-24.69 237.45,-24.69"/>
<polygon fill="black" stroke="black" points="237.24,-28.19 247.24,-24.69 237.24,-21.19 237.24,-28.19"/>
<text text-anchor="middle" x="138.78" y="-28.89" font-family="Times,serif" font-size="14.00">ε</text>
</g>
<!-- 11 -->
<g id="node3" class="node" pointer-events="visible" data-name="11">

<ellipse fill="none" stroke="black" cx="181.37" cy="-57.69" rx="20.89" ry="20.89"/>
<text text-anchor="middle" x="181.37" y="-53.49" font-family="Times,serif" font-size="14.00">11</text>
</g>
<!-- 10&#45;&gt;11 -->
<g id="edge2" class="edge" data-name="10-&gt;11">

<path fill="none" stroke="black" d="M117.33,-57.69C126.76,-57.69 138.22,-57.69 148.76,-57.69"/>
<polygon fill="black" stroke="black" points="148.62,-61.19 158.62,-57.69 148.62,-54.19 148.62,-61.19"/>
<text text-anchor="middle" x="138.78" y="-61.89" font-family="Times,serif" font-size="14.00">S</text>
</g>
<!-- 11&#45;&gt;12 -->
<g id="edge3" class="edge" data-name="11-&gt;12">

<path fill="none" stroke="black" d="M201.55,-50.7C212.54,-46.69 226.65,-41.54 239.4,-36.89"/>
<polygon fill="black" stroke="black" points="240.54,-40.2 248.73,-33.48 238.14,-33.62 240.54,-40.2"/>
<text text-anchor="middle" x="225.6" y="-46.89" font-family="Times,serif" font-size="14.00">L'</text>
</g>
</g>
</svg>