<?xml version="1.0" standalone="no"?>
<svg xmlns="http://www.w3.org/2000/svg" xmlns:xlink="http://www.w3.org/1999/xlink" width="296pt" height="81pt" viewBox="0.00 0.00 295.75 80.69">
<g id="graph0" class="graph" transform="translate(4,76.69000244140625) scale(1)" data-name="LPrime">

<polygon fill="white" stroke="none" points="-4,4 -4,-76.69 291.75,-76.69 291.75,4 -4,4"/>
<!-- 9 -->
<g id="node1" class="node" pointer-events="visible" data-name="7" data-comment="9">

<ellipse fill="none" stroke="black" cx="18" cy="-24.69" rx="18" ry="18"/>
<text text-anchor="middle" x="18" y="-20.49" font-family="Times,serif" font-size="14.00">7</text>
</g>
<!-- 10 -->
<g id="node2" class="node" pointer-events="visible" data-name="8" data-comment="10">

<ellipse fill="none" stroke="black" cx="93.5" cy="-54.69" rx="18" ry="18"/>
<text text-anchor="middle" x="93.5" y="-50.49" font-family="Times,serif" font-size="14.00">8</text>
</g>
<!-- 9&#45;&gt;10 -->
<g id="edge1" class="edge" data-name="7-&gt;8" data-comment="9-&gt;10">

<path fill="none" stroke="black" d="M34.95,-31.2C43.94,-34.87 55.41,-39.55 65.74,-43.77"/>
<polygon fill="black" stroke="black" points="64.35,-46.98 74.93,-47.52 66.99,-40.5 64.35,-46.98"/>
<text text-anchor="middle" x="55.75" y="-43.89" font-family="Times,serif" font-size="14.00">,</text>
</g>
<!-- 12 -->
<g id="node4" class="node" pointer-events="visible" data-name="10" data-comment="12">

<ellipse fill="none" stroke="black" cx="263.05" cy="-24.69" rx="20.86" ry="20.86"/>
<ellipse fill="none" stroke="black" cx="263.05" cy="-24.69" rx="24.89" ry="24.89"/>
<text text-anchor="middle" x="263.05" y="-20.49" font-family="Times,serif" font-size="14.00">10</text>
</g>
<!-- 9&#45;&gt;12 -->
<g id="edge4" class="edge" data-name="7-&gt;10" data-comment="9-&gt;12">

<path fill="none" stroke="black" d="M36.48,-24.69C76.15,-24.69 173.63,-24.69 226.53,-24.69"/>
<polygon fill="black" stroke="black" points="226.21,-28.19 236.21,-24.69 226.21,-21.19 226.21,-28.19"/>
<text text-anchor="middle" x="133.39" y="-28.89" font-family="Times,serif" font-size="14.00">ε</text>
</g>
<!-- 11 -->
<g id="node3" class="node" pointer-events="visible" data-name="9" data-comment="11">

<ellipse fill="none" stroke="black" cx="173.29" cy="-54.69" rx="18" ry="18"/>
<text text-anchor="middle" x="173.29" y="-50.49" font-family="Times,serif" font-size="14.00">9</text>
</g>
<!-- 10&#45;&gt;11 -->
<g id="edge2" class="edge" data-name="8-&gt;9" data-comment="10-&gt;11">

<path fill="none" stroke="black" d="M111.76,-54.69C121.06,-54.69 132.78,-54.69 143.43,-54.69"/>
<polygon fill="black" stroke="black" points="143.29,-58.19 153.29,-54.69 143.29,-51.19 143.29,-58.19"/>
<text text-anchor="middle" x="133.39" y="-58.89" font-family="Times,serif" font-size="14.00">S</text>
</g>
<!-- 11&#45;&gt;12 -->
<g id="edge3" class="edge" data-name="9-&gt;10" data-comment="11-&gt;12">

<path fill="none" stroke="black" d="M190.79,-49.05C201.32,-45.45 215.34,-40.66 228.16,-36.28"/>
<polygon fill="black" stroke="black" points="229.23,-39.61 237.56,-33.06 226.97,-32.99 229.23,-39.61"/>
<text text-anchor="middle" x="214.82" y="-45.89" font-family="Times,serif" font-size="14.00">L'</text>
</g>
</g>
</svg>