<?xml version="1.0" standalone="no"?>
<svg xmlns="http://www.w3.org/2000/svg" xmlns:xlink="http://www.w3.org/1999/xlink" width="137pt" height="121pt" viewBox="0.00 0.00 137.17 120.69">
<g id="graph0" class="graph" transform="translate(4,116.69000244140625) scale(1)" data-name="LPrime">

<polygon fill="white" stroke="none" points="-4,4 -4,-116.69 133.17,-116.69 133.17,4 -4,4"/>
<!-- 7 -->
<g id="node1" class="node" pointer-events="visible" data-name="7">

<ellipse fill="none" stroke="black" cx="18" cy="-64.69" rx="18" ry="18"/>
<text text-anchor="middle" x="18" y="-60.49" font-family="Times,serif" font-size="14.00">7</text>
</g>
<!-- 8 -->
<g id="node2" class="node" pointer-events="visible" data-name="8">

<ellipse fill="none" stroke="black" cx="104.48" cy="-94.69" rx="18" ry="18"/>
<text text-anchor="middle" x="104.48" y="-90.49" font-family="Times,serif" font-size="14.00">8</text>
</g>
<!-- 7&#45;&gt;8 -->
<g id="edge1" class="edge" data-name="7-&gt;8">

<path fill="none" stroke="black" d="M33.98,-73.39C40.05,-76.65 47.21,-80.17 54,-82.69 60.88,-85.25 68.49,-87.42 75.65,-89.17"/>
<polygon fill="black" stroke="black" points="74.69,-92.54 85.22,-91.32 76.23,-85.71 74.69,-92.54"/>
<text text-anchor="middle" x="57.89" y="-88.89" font-family="Times,serif" font-size="14.00">,</text>
</g>
<!-- 10 -->
<g id="node3" class="node" pointer-events="visible" data-name="10">

<ellipse fill="none" stroke="black" cx="104.48" cy="-24.69" rx="20.86" ry="20.86"/>
<ellipse fill="none" stroke="black" cx="104.48" cy="-24.69" rx="24.89" ry="24.89"/>
<text text-anchor="middle" x="104.48" y="-20.49" font-family="Times,serif" font-size="14.00">10</text>
</g>
<!-- 7&#45;&gt;10 -->
<g id="edge3" class="edge" data-name="7-&gt;10">

<path fill="none" stroke="black" d="M32.66,-53.48C38.88,-48.78 46.52,-43.58 54,-39.89 58.66,-37.6 63.74,-35.57 68.81,-33.79"/>
<polygon fill="black" stroke="black" points="69.82,-37.15 78.29,-30.79 67.7,-30.47 69.82,-37.15"/>
<text text-anchor="middle" x="57.89" y="-44.89" font-family="Times,serif" font-size="14.00">ε</text>
</g>
<!-- 8&#45;&gt;7 -->
<g id="edge2" class="edge" data-name="8-&gt;7">

<path fill="none" stroke="black" d="M91.7,-81.86C84,-74.47 73.27,-65.87 61.79,-61.89 57.12,-60.28 51.99,-59.69 46.96,-59.7"/>
<polygon fill="black" stroke="black" points="46.85,-56.2 37.17,-60.5 47.42,-63.17 46.85,-56.2"/>
<text text-anchor="middle" x="57.89" y="-66.89" font-family="Times,serif" font-size="14.00">S</text>
</g>
</g>
</svg>