<?xml version="1.0" standalone="no"?>
<svg xmlns="http://www.w3.org/2000/svg" xmlns:xlink="http://www.w3.org/1999/xlink" width="217pt" height="121pt" viewBox="0.00 0.00 216.96 120.69">
<g id="graph0" class="graph" transform="translate(4,116.69000244140625) scale(1)" data-name="L">

<polygon fill="white" stroke="none" points="-4,4 -4,-116.69 212.96,-116.69 212.96,4 -4,4"/>
<!-- 4 -->
<g id="node1" class="node" pointer-events="visible" data-name="4">

<ellipse fill="none" stroke="black" cx="18" cy="-64.69" rx="18" ry="18"/>
<text text-anchor="middle" x="18" y="-60.49" font-family="Times,serif" font-size="14.00">4</text>
</g>
<!-- 7 -->
<g id="node3" class="node" pointer-events="visible" data-name="7">

<ellipse fill="none" stroke="black" cx="97.79" cy="-64.69" rx="18" ry="18"/>
<text text-anchor="middle" x="97.79" y="-60.49" font-family="Times,serif" font-size="14.00">7</text>
</g>
<!-- 4&#45;&gt;7 -->
<g id="edge1" class="edge" data-name="4-&gt;7">

<path fill="none" stroke="black" d="M36.26,-64.69C45.56,-64.69 57.28,-64.69 67.93,-64.69"/>
<polygon fill="black" stroke="black" points="67.79,-68.19 77.79,-64.69 67.79,-61.19 67.79,-68.19"/>
<text text-anchor="middle" x="57.89" y="-68.89" font-family="Times,serif" font-size="14.00">S</text>
</g>
<!-- 8 -->
<g id="node2" class="node" pointer-events="visible" data-name="8">

<ellipse fill="none" stroke="black" cx="184.27" cy="-94.69" rx="18" ry="18"/>
<text text-anchor="middle" x="184.27" y="-90.49" font-family="Times,serif" font-size="14.00">8</text>
</g>
<!-- 10 -->
<!-- 7&#45;&gt;9 -->

<!-- 10 -->
<g id="node4" class="node" pointer-events="visible" data-name="10">

<ellipse fill="none" stroke="black" cx="184.27" cy="-24.69" rx="20.86" ry="20.86"/>
<ellipse fill="none" stroke="black" cx="184.27" cy="-24.69" rx="24.89" ry="24.89"/>
<text text-anchor="middle" x="184.27" y="-20.49" font-family="Times,serif" font-size="14.00">10</text>
</g><g id="edge2" class="edge" data-name="7-&gt;8" data-comment="10">

<path fill="none" stroke="black" d="M113.76,-73.39C119.83,-76.65 127,-80.17 133.79,-82.69 140.66,-85.25 148.28,-87.42 155.44,-89.17"/>
<polygon fill="black" stroke="black" points="154.48,-92.54 165,-91.32 156.02,-85.71 154.48,-92.54"/>
<text text-anchor="middle" x="137.68" y="-88.89" font-family="Times,serif" font-size="14.00">1</text>
</g><g id="edge3" class="edge" data-name="8-&gt;7" data-comment="10">

<path fill="none" stroke="black" d="M171.48,-81.86C163.79,-74.47 153.06,-65.87 141.57,-61.89 136.9,-60.28 131.78,-59.69 126.75,-59.7"/>
<polygon fill="black" stroke="black" points="126.63,-56.2 116.95,-60.5 127.21,-63.17 126.63,-56.2"/>
<text text-anchor="middle" x="137.68" y="-66.89" font-family="Times,serif" font-size="14.00">S</text>
</g>

<!-- 7&#45;&gt;10 -->
<g id="edge4" class="edge" data-name="7-&gt;10">

<path fill="none" stroke="black" d="M112.45,-53.48C118.67,-48.78 126.3,-43.58 133.79,-39.89 138.45,-37.6 143.53,-35.57 148.6,-33.79"/>
<polygon fill="black" stroke="black" points="149.6,-37.15 158.08,-30.79 147.49,-30.47 149.6,-37.15"/>
<text text-anchor="middle" x="137.68" y="-44.89" font-family="Times,serif" font-size="14.00">ε</text>
</g>
</g>
</svg>