<?xml version="1.0" standalone="no"?>
<svg xmlns="http://www.w3.org/2000/svg" xmlns:xlink="http://www.w3.org/1999/xlink" width="216pt" height="57pt" viewBox="0.00 0.00 216.17 57.39">
<g id="graph0" class="graph" transform="translate(4,53.38999938964844) scale(1)" data-name="L">

<polygon fill="white" stroke="none" points="-4,4 -4,-53.39 212.17,-53.39 212.17,4 -4,4" style=""/>
<!-- 4 -->
<g id="node1" class="node" pointer-events="visible" data-name="4">

<ellipse fill="none" stroke="black" cx="18" cy="-24.69" rx="18" ry="18" style=""/>
<text text-anchor="middle" x="18" y="-20.49" font-family="Times,serif" font-size="14.00" style="">4</text>
</g>
<!-- 7 -->
<g id="node2" class="node" pointer-events="visible" data-name="7">

<ellipse fill="none" stroke="black" cx="97.79" cy="-24.69" rx="18" ry="18" style=""/>
<text text-anchor="middle" x="97.79" y="-20.49" font-family="Times,serif" font-size="14.00" style="">7</text>
</g>
<!-- 4&#45;&gt;7 -->
<g id="edge1" class="edge" data-name="4-&gt;7">

<path fill="none" stroke="black" d="M36.26,-24.69C45.56,-24.69 57.28,-24.69 67.93,-24.69" style=""/>
<polygon fill="black" stroke="black" points="67.79,-28.19 77.79,-24.69 67.79,-21.19 67.79,-28.19" style=""/>
<text text-anchor="middle" x="57.89" y="-28.89" font-family="Times,serif" font-size="14.00" style="">S</text>
</g>
<!-- 7&#45;&gt;4 -->
<g id="edge2" class="edge" data-name="7-&gt;4">

<path fill="none" stroke="black" d="M83.8,-12.75C75.56,-6.63 64.51,-1.01 54,-3.89 50.13,-4.96 46.26,-6.57 42.58,-8.43" style=""/>
<polygon fill="black" stroke="black" points="41.02,-5.29 34.16,-13.36 44.56,-11.33 41.02,-5.29" style=""/>
<text text-anchor="middle" x="57.89" y="-7.89" font-family="Times,serif" font-size="14.00" style="">1</text>
</g>
<!-- 10 -->
<g id="node3" class="node" pointer-events="visible" data-name="10">

<ellipse fill="none" stroke="black" cx="183.48" cy="-24.69" rx="20.86" ry="20.86" style=""/>
<ellipse fill="none" stroke="black" cx="183.48" cy="-24.69" rx="24.89" ry="24.89" style=""/>
<text text-anchor="middle" x="183.48" y="-20.49" font-family="Times,serif" font-size="14.00" style="">10</text>
</g>
<!-- 7&#45;&gt;10 -->
<g id="edge3" class="edge" data-name="7-&gt;10">

<path fill="none" stroke="black" d="M116.13,-24.69C125.06,-24.69 136.29,-24.69 146.96,-24.69" style=""/>
<polygon fill="black" stroke="black" points="146.67,-28.19 156.67,-24.69 146.67,-21.19 146.67,-28.19" style=""/>
<text text-anchor="middle" x="137.29" y="-28.89" font-family="Times,serif" font-size="14.00" style="">ε</text>
</g>
</g>
</svg>